<svg width="5069" height="1055" viewBox="0 0 5069 1055" fill="none" xmlns="http://www.w3.org/2000/svg">
<path d="M765.137 407.715C780.762 407.715 788.574 416.504 788.574 434.082C788.574 445.801 784.505 460.612 776.367 478.516C768.555 496.094 757.161 512.695 742.188 528.32C727.214 543.62 709.961 559.57 690.43 576.172C671.224 592.773 648.6 610.189 622.559 628.418C596.842 646.647 568.359 664.714 537.109 682.617C505.859 700.521 472.656 716.634 437.5 730.957C359.701 762.858 284.342 778.809 211.426 778.809C155.762 778.809 107.096 764.323 65.4297 735.352C21.8099 705.078 0 668.294 0 625C0 556.966 36.6211 492.35 109.863 431.152C173.014 378.418 247.396 337.565 333.008 308.594C385.091 291.016 429.199 282.227 465.332 282.227C494.629 282.227 519.368 289.388 539.551 303.711C561.035 319.336 571.777 340.332 571.777 366.699C571.777 408.04 539.062 453.776 473.633 503.906C463.216 512.044 453.776 518.88 445.312 524.414L427.734 536.133C395.182 558.919 345.703 584.473 279.297 612.793C299.805 623.535 318.848 628.906 336.426 628.906C354.329 628.906 370.28 626.79 384.277 622.559C398.6 618.327 414.714 612.305 432.617 604.492C450.521 596.68 469.564 587.402 489.746 576.66C510.254 565.592 530.924 553.548 551.758 540.527C598.307 511.556 638.672 481.934 672.852 451.66C690.755 435.059 713.542 421.875 741.211 412.109C750.326 409.18 758.301 407.715 765.137 407.715ZM226.562 544.922L253.418 531.25C262.207 526.693 270.02 522.461 276.855 518.555C342.611 480.794 380.046 457.52 389.16 448.73C398.275 439.941 402.832 433.919 402.832 430.664C402.832 427.083 401.855 423.014 399.902 418.457C397.949 413.9 395.345 409.831 392.09 406.25C384.277 397.135 375.977 392.578 367.188 392.578C358.398 392.578 348.633 394.206 337.891 397.461C327.474 400.716 316.895 405.273 306.152 411.133C295.41 416.667 284.993 423.503 274.902 431.641C265.137 439.453 256.51 447.917 249.023 457.031C231.771 477.539 223.145 495.28 223.145 510.254C223.145 525.228 224.284 536.784 226.562 544.922Z" fill="white"/>
<path d="M1503.42 405.762C1518.07 405.762 1525.39 413.249 1525.39 428.223C1525.39 451.986 1509.77 485.514 1478.52 528.809C1456.71 559.082 1411.78 601.074 1343.75 654.785C1262.7 718.262 1197.59 750 1148.44 750C1111.33 750 1083.33 734.375 1064.45 703.125C1053.06 684.245 1043.78 656.576 1036.62 620.117L993.164 651.367C873.698 734.049 784.505 775.391 725.586 775.391C676.432 775.391 637.044 757.487 607.422 721.68C581.38 689.453 568.359 650.879 568.359 605.957C568.359 556.478 585.286 517.415 619.141 488.77C688.151 430.827 773.926 383.138 876.465 345.703C918.132 330.404 944.499 322.754 955.566 322.754C966.634 322.754 976.725 324.707 985.84 328.613C995.28 332.194 1004.56 336.914 1013.67 342.773C1035.16 357.422 1045.9 371.582 1045.9 385.254C1045.9 396.322 1039.06 405.273 1025.39 412.109C1021.16 414.388 1014 417.48 1003.91 421.387C993.815 425.293 981.445 430.664 966.797 437.5C927.409 456.055 888.997 478.516 851.562 504.883C824.87 527.669 811.523 545.898 811.523 559.57C811.523 572.917 820.964 579.59 839.844 579.59C855.469 579.59 886.719 565.755 933.594 538.086C933.594 538.086 947.428 529.622 975.098 512.695C1004.72 494.141 1028.48 477.214 1046.39 461.914C1046.39 461.914 1053.87 437.5 1068.85 388.672C1096.52 301.432 1127.28 229.329 1161.13 172.363C1221.03 57.4544 1281.25 0 1341.8 0C1363.93 0 1381.51 4.06901 1394.53 12.207C1417.97 26.8555 1429.69 43.1315 1429.69 61.0352C1429.69 78.6133 1426.43 97.3307 1419.92 117.188C1413.41 137.044 1404.79 156.738 1394.04 176.27C1383.63 195.801 1371.58 215.169 1357.91 234.375L1274.41 344.727C1260.42 362.63 1248.05 380.046 1237.3 396.973C1218.42 437.663 1208.98 472.493 1208.98 501.465C1208.98 543.132 1224.12 563.965 1254.39 563.965C1271.65 563.965 1302.73 545.898 1347.66 509.766L1405.27 460.938C1432.29 436.849 1458.98 419.922 1485.35 410.156C1492.84 407.227 1498.86 405.762 1503.42 405.762Z" fill="white"/>
<path d="M2266.11 399.902C2276.53 399.902 2281.74 408.691 2281.74 426.27C2281.74 456.543 2260.58 495.768 2218.26 543.945L2190.43 572.266C2106.12 656.576 2026.69 712.728 1952.15 740.723C1905.92 757.975 1872.72 757.161 1852.54 738.281C1835.94 722.331 1822.75 696.615 1812.99 661.133L1801.27 618.652L1697.27 682.617L1637.21 716.797C1565.59 755.859 1511.88 775.391 1476.07 775.391C1430.18 775.391 1391.93 757.65 1361.33 722.168C1332.03 688.639 1317.38 649.74 1317.38 605.469C1317.38 561.849 1334.8 522.949 1369.63 488.77C1419.43 439.941 1498.05 395.182 1605.47 354.492C1707.03 316.406 1789.06 297.363 1851.56 297.363C1872.72 297.363 1883.3 307.78 1883.3 328.613C1883.3 342.936 1880.53 353.678 1875 360.84C1869.47 368.001 1858.07 375.326 1840.82 382.812L1779.3 409.18C1688.15 447.266 1621.42 486.816 1579.1 527.832C1567.06 539.225 1561.04 550.293 1561.04 561.035C1561.04 571.777 1569.66 577.148 1586.91 577.148C1603.84 577.148 1643.23 558.919 1705.08 522.461L1745.61 498.535C1808.43 460.775 1861 441.895 1903.32 441.895C1939.13 441.895 1962.89 457.682 1974.61 489.258C1977.54 497.721 1980.31 506.348 1982.91 515.137C1985.51 523.6 1988.12 531.25 1990.72 538.086C1996.58 554.036 2001.79 562.012 2006.35 562.012C2011.23 562.012 2018.07 559.733 2026.86 555.176C2035.64 550.293 2045.25 544.271 2055.66 537.109C2066.41 529.622 2077.47 521.484 2088.87 512.695L2147.95 465.332C2200.36 421.712 2239.75 399.902 2266.11 399.902Z" fill="white"/>
<path d="M2335.45 644.531C2346.19 639.974 2361.17 632.812 2380.37 623.047C2497.88 562.826 2562.34 529.622 2573.73 523.438L2594.24 512.207C2615.4 498.535 2625.16 487.793 2623.54 479.98C2619.95 463.379 2611 456.706 2596.68 459.961C2582.36 462.891 2567.38 466.96 2551.76 472.168C2536.46 477.376 2520.18 483.724 2502.93 491.211C2466.8 506.185 2435.06 521.159 2407.71 536.133C2312.01 591.146 2254.39 624.512 2234.86 636.23C2220.87 667.806 2208.33 699.219 2197.27 730.469L2138.18 897.461C2119.63 949.219 2100.91 984.212 2082.03 1002.44C2071.94 1012.53 2060.71 1017.58 2048.34 1017.58C2017.74 1017.58 1993.65 1006.84 1976.07 985.352C1958.5 964.193 1949.71 937.174 1949.71 904.297C1949.71 871.745 1953.94 839.518 1962.4 807.617C1970.87 776.042 1982.58 743.978 1997.56 711.426C2027.83 645.671 2068.36 584.31 2119.14 527.344C2150.07 444.336 2201.5 363.77 2273.44 285.645C2317.38 238.118 2358.24 204.59 2396 185.059C2414.88 175.293 2430.99 170.41 2444.34 170.41C2457.68 170.41 2467.77 173.503 2474.61 179.688C2481.45 185.547 2484.86 193.034 2484.86 202.148C2484.86 210.938 2482.1 222.168 2476.56 235.84C2471.03 249.512 2463.54 264.811 2454.1 281.738C2444.66 298.665 2433.59 316.732 2420.9 335.938L2380.37 395.02C2377.12 399.902 2375.49 404.297 2375.49 408.203C2375.49 414.388 2379.23 417.48 2386.72 417.48C2395.18 417.48 2410.81 412.109 2433.59 401.367L2511.72 365.234C2580.08 334.31 2645.51 318.848 2708.01 318.848C2740.56 318.848 2771.16 334.31 2799.8 365.234C2828.78 396.484 2843.26 430.013 2843.26 465.82C2843.26 521.159 2820.64 563.802 2775.39 593.75L2714.84 633.789C2693.03 647.461 2670.57 660.97 2647.46 674.316L2577.15 712.891C2498.05 753.906 2436.85 774.414 2393.55 774.414C2350.59 774.414 2319.34 769.043 2299.8 758.301C2280.27 747.559 2270.51 732.422 2270.51 712.891C2270.51 686.523 2292.15 663.737 2335.45 644.531Z" fill="white"/>
<path d="M3368.65 432.129C3400.55 432.129 3416.5 443.197 3416.5 465.332C3416.5 486.491 3401.53 513.835 3371.58 547.363L3347.66 572.266C3318.68 601.888 3284.83 631.022 3246.09 659.668C3207.68 688.314 3173.83 710.938 3144.53 727.539C3076.5 765.299 3014.81 784.18 2959.47 784.18C2907.39 784.18 2864.91 768.555 2832.03 737.305C2803.71 710.286 2789.55 681.803 2789.55 651.855C2789.55 621.908 2792.48 592.122 2798.34 562.5C2804.2 532.878 2811.85 503.906 2821.29 475.586C2840.17 417.969 2860.84 368.978 2883.3 328.613C2889.16 317.546 2892.09 310.384 2892.09 307.129H2829.1C2805.34 307.129 2786.95 301.595 2773.93 290.527C2760.9 279.46 2754.39 266.927 2754.39 252.93C2754.39 238.932 2757 228.678 2762.21 222.168C2767.42 215.658 2773.93 210.938 2781.74 208.008C2792.81 203.451 2809.08 201.172 2830.57 201.172L2950.2 201.66C2952.8 200.684 2958.01 193.685 2965.82 180.664L2995.61 129.395C3008.3 106.608 3021 89.8438 3033.69 79.1016C3046.71 68.3594 3061.85 62.9883 3079.1 62.9883C3096.68 62.9883 3111.33 64.6159 3123.05 67.8711C3135.09 71.1263 3145.18 75.1953 3153.32 80.0781C3169.27 90.4948 3177.25 101.888 3177.25 114.258C3177.25 119.466 3175.46 126.465 3171.88 135.254L3144.53 201.66L3376.46 201.172C3396.65 201.172 3406.74 211.589 3406.74 232.422C3406.74 281.901 3362.63 306.641 3274.41 306.641L3095.7 307.129C3091.8 309.082 3085.12 318.522 3075.68 335.449L3053.71 375.977C3048.18 386.068 3044.27 393.717 3041.99 398.926L3031.25 422.852C3009.44 472.005 2998.54 507.487 2998.54 529.297C2998.54 551.107 3004.23 569.336 3015.62 583.984C3027.34 598.633 3042.81 605.957 3062.01 605.957C3081.22 605.957 3099.93 602.214 3118.16 594.727C3136.72 587.24 3154.79 578.125 3172.36 567.383C3204.26 547.526 3229.33 529.134 3247.56 512.207C3265.79 495.28 3280.92 482.422 3292.97 473.633C3292.97 473.633 3304.36 465.658 3327.15 449.707C3344.73 437.988 3358.56 432.129 3368.65 432.129Z" fill="white"/>
<path d="M3751.46 202.148C3742.02 209.961 3731.77 216.471 3720.7 221.68C3709.64 226.562 3697.27 229.004 3683.59 229.004C3669.92 229.004 3656.74 226.725 3644.04 222.168C3631.35 217.611 3620.28 211.263 3610.84 203.125C3590.33 185.547 3580.08 163.086 3580.08 135.742C3580.08 93.75 3615.23 62.5 3685.55 41.9922C3709.31 34.8307 3728.84 31.25 3744.14 31.25C3759.44 31.25 3770.83 33.0404 3778.32 36.6211C3786.13 39.8763 3792.48 44.2708 3797.36 49.8047C3807.13 60.8724 3812.01 72.2656 3812.01 83.9844C3812.01 95.3776 3810.55 105.794 3807.62 115.234C3805.01 124.674 3801.11 134.44 3795.9 144.531C3790.69 154.622 3784.34 164.714 3776.86 174.805C3769.37 184.896 3760.9 194.01 3751.46 202.148ZM3628.42 739.746C3603.68 752.441 3579.59 762.533 3556.15 770.02C3532.71 777.832 3509.6 781.738 3486.82 781.738C3464.36 781.738 3440.92 776.367 3416.5 765.625C3392.42 754.557 3370.93 739.909 3352.05 721.68C3310.06 680.99 3289.06 635.742 3289.06 585.938C3289.06 540.039 3302.73 493.49 3330.08 446.289C3355.14 403.646 3387.04 367.839 3425.78 338.867C3464.52 309.896 3500.49 295.41 3533.69 295.41C3581.22 295.41 3606.61 308.757 3609.86 335.449C3610.84 343.587 3611.33 353.027 3611.33 363.77C3611.33 374.512 3608.72 386.882 3603.52 400.879C3598.63 414.551 3592.12 428.385 3583.98 442.383C3576.17 456.055 3567.38 469.564 3557.62 482.91C3548.18 495.931 3539.06 507.812 3530.27 518.555C3513.35 539.062 3499.84 553.874 3489.75 562.988C3489.75 574.056 3498.05 585.449 3514.65 597.168C3530.27 608.236 3543.46 613.77 3554.2 613.77C3565.27 613.77 3578.12 611.165 3592.77 605.957C3607.75 600.749 3623.05 593.75 3638.67 584.961C3654.62 576.172 3670.74 566.081 3687.01 554.688C3703.61 543.294 3719.89 531.576 3735.84 519.531L3825.2 449.707C3860.68 423.991 3889.49 411.133 3911.62 411.133C3920.41 411.133 3927.08 414.388 3931.64 420.898C3936.52 427.083 3938.96 434.408 3938.96 442.871C3938.96 451.335 3934.73 463.053 3926.27 478.027C3917.81 492.676 3906.09 508.952 3891.11 526.855C3876.46 544.759 3859.21 563.477 3839.36 583.008C3819.5 602.539 3798.01 621.745 3774.9 640.625C3751.79 659.505 3727.7 677.572 3702.64 694.824C3677.9 711.751 3653.16 726.725 3628.42 739.746Z" fill="white"/>
<path d="M4110.35 690.43C4079.43 706.706 4047.85 720.052 4015.62 730.469C3983.72 740.56 3953.78 745.605 3925.78 745.605C3897.79 745.605 3866.21 732.91 3831.05 707.52C3825.85 735.84 3821.13 763.997 3816.89 791.992C3812.34 820.312 3806.97 847.331 3800.78 873.047C3794.6 898.763 3786.95 922.689 3777.83 944.824C3768.39 966.96 3756.18 986.003 3741.21 1001.95C3708.33 1036.78 3662.6 1054.2 3604 1054.2C3594.89 1054.2 3587.4 1050.78 3581.54 1043.95C3571.13 1031.58 3566.89 1017.42 3568.85 1001.46C3570.8 985.84 3576.99 963.379 3587.4 934.082C3597.82 904.785 3611 872.396 3626.95 836.914C3642.9 801.758 3660.81 764.323 3680.66 724.609L3743.65 604.492C3736.49 587.565 3732.91 572.428 3732.91 559.082C3732.91 545.736 3735.19 532.389 3739.75 519.043C3744.3 505.697 3750.65 493.164 3758.79 481.445C3777.34 453.776 3798.01 439.941 3820.8 439.941C3825.03 439.941 3829.43 440.43 3833.98 441.406C3919.27 296.875 3968.26 214.518 3980.96 194.336L4007.81 152.344C4057.94 78.4505 4105.47 34.1797 4150.39 19.5312C4165.69 14.6484 4181.32 12.207 4197.27 12.207C4213.22 12.207 4226.24 17.7409 4236.33 28.8086C4246.74 39.8763 4251.95 57.4544 4251.95 81.543C4251.95 150.228 4213.54 229.167 4136.72 318.359L4009.77 458.984C3987.3 483.398 3965.82 508.464 3945.31 534.18C3956.05 546.549 3965.98 557.292 3975.1 566.406C3984.21 575.195 3991.7 579.59 3997.56 579.59C4003.74 579.59 4012.7 577.637 4024.41 573.73C4036.13 569.499 4049.48 563.965 4064.45 557.129C4079.75 550.293 4096.03 542.48 4113.28 533.691C4130.53 524.577 4147.3 515.299 4163.57 505.859C4199.38 485.026 4225.1 467.936 4240.72 454.59C4268.07 431.478 4289.55 419.922 4305.18 419.922C4316.57 419.922 4324.87 422.526 4330.08 427.734C4338.54 436.198 4342.77 446.289 4342.77 458.008C4342.77 469.401 4336.43 485.514 4323.73 506.348C4311.36 526.855 4294.43 548.014 4272.95 569.824C4251.79 591.309 4227.21 612.63 4199.22 633.789C4171.22 654.948 4141.6 673.828 4110.35 690.43Z" fill="white"/>
<path d="M4415.04 559.082C4415.04 574.056 4424.97 581.543 4444.82 581.543C4485.19 581.543 4553.87 531.25 4650.88 430.664L4698.24 382.812C4730.47 351.237 4751.79 335.449 4762.21 335.449C4772.62 335.449 4781.9 337.24 4790.04 340.82C4798.18 344.401 4805.34 348.958 4811.52 354.492C4824.22 365.885 4830.57 378.092 4830.57 391.113C4830.57 403.809 4829.1 417.969 4826.17 433.594C4823.57 448.893 4819.34 466.146 4813.48 485.352C4802.73 521.159 4783.37 569.173 4755.37 629.395L4735.35 672.363L4818.36 597.168L4988.28 451.66C5005.53 438.639 5019.86 432.129 5031.25 432.129C5055.99 432.129 5068.36 444.01 5068.36 467.773C5068.36 492.188 5052.41 523.6 5020.51 562.012C5010.74 574.056 5000.16 585.286 4988.77 595.703L4873.54 695.801L4648.93 885.742C4629.07 902.995 4614.1 916.667 4604 926.758C4591.96 946.289 4582.52 960.775 4575.68 970.215C4569.17 979.98 4562.66 990.234 4556.15 1000.98C4549.64 1012.04 4543.29 1021.48 4537.11 1029.3C4523.76 1046.22 4510.42 1054.69 4497.07 1054.69C4483.07 1054.69 4469.56 1048.99 4456.54 1037.6C4432.45 1016.44 4420.41 997.559 4420.41 980.957C4420.41 964.355 4424.97 944.987 4434.08 922.852C4443.2 901.042 4455.08 875.977 4469.73 847.656L4573.24 656.738C4523.44 701.66 4484.38 731.445 4456.05 746.094C4427.73 760.417 4403.81 769.857 4384.28 774.414C4365.07 779.297 4344.56 781.738 4322.75 781.738C4301.27 781.738 4282.39 777.181 4266.11 768.066C4249.84 759.277 4236.33 747.396 4225.59 732.422C4204.75 702.799 4194.34 664.225 4194.34 616.699C4194.34 566.243 4207.03 516.439 4232.42 467.285C4256.84 419.108 4289.06 380.371 4329.1 351.074C4371.42 319.824 4414.88 304.199 4459.47 304.199C4504.07 304.199 4526.37 321.615 4526.37 356.445C4526.37 378.255 4507.81 410.645 4470.7 453.613C4433.59 496.257 4415.04 531.413 4415.04 559.082Z" fill="white"/>
</svg>
