<svg width="1384" height="339" viewBox="0 0 1384 339" fill="none" xmlns="http://www.w3.org/2000/svg">
<mask id="path-1-outside-1_29_12" maskUnits="userSpaceOnUse" x="0" y="0" width="1384" height="339" fill="black">
<rect fill="white" width="1384" height="339"/>
<path d="M231.272 138.308C235.341 138.308 237.376 140.6 237.376 145.183C237.376 148.238 236.316 152.1 234.197 156.769C232.162 161.352 229.195 165.681 225.295 169.755C221.395 173.744 216.902 177.903 211.815 182.231C206.813 186.56 200.921 191.101 194.139 195.854C187.441 200.607 180.023 205.318 171.884 209.986C163.746 214.654 155.098 218.856 145.942 222.59C125.68 230.908 106.054 235.067 87.0636 235.067C72.5665 235.067 59.8921 231.29 49.0405 223.736C37.6802 215.843 32 206.252 32 194.963C32 177.224 41.5376 160.376 60.6127 144.419C77.0597 130.669 96.4316 120.017 118.728 112.463C132.293 107.88 143.78 105.588 153.191 105.588C160.821 105.588 167.264 107.455 172.52 111.19C178.116 115.264 180.913 120.738 180.913 127.613C180.913 138.393 172.393 150.318 155.353 163.389C152.64 165.511 150.181 167.293 147.977 168.736L143.399 171.792C134.921 177.733 122.035 184.396 104.74 191.78C110.081 194.581 115.04 195.981 119.619 195.981C124.281 195.981 128.435 195.43 132.081 194.326C135.811 193.223 140.008 191.653 144.671 189.616C149.333 187.579 154.293 185.16 159.549 182.359C164.89 179.473 170.274 176.333 175.699 172.938C187.823 165.383 198.335 157.66 207.237 149.766C211.9 145.438 217.834 142 225.04 139.454C227.414 138.69 229.491 138.308 231.272 138.308ZM91.0058 174.083L98 170.519C100.289 169.33 102.324 168.227 104.104 167.208C121.229 157.363 130.979 151.294 133.353 149.002C135.726 146.711 136.913 145.14 136.913 144.292C136.913 143.358 136.659 142.297 136.15 141.109C135.642 139.921 134.963 138.86 134.116 137.926C132.081 135.549 129.919 134.361 127.63 134.361C125.341 134.361 122.798 134.785 120 135.634C117.287 136.483 114.532 137.671 111.734 139.199C108.936 140.642 106.224 142.424 103.595 144.546C101.052 146.583 98.8054 148.79 96.8555 151.167C92.3622 156.514 90.1156 161.14 90.1156 165.044C90.1156 168.948 90.4123 171.961 91.0058 174.083Z"/>
<path d="M423.549 137.799C427.364 137.799 429.272 139.751 429.272 143.655C429.272 149.851 425.202 158.593 417.064 169.882C411.383 177.775 399.684 188.725 381.965 202.729C360.855 219.28 343.9 227.556 331.098 227.556C321.434 227.556 314.143 223.481 309.225 215.333C306.258 210.411 303.842 203.196 301.977 193.69L290.659 201.838C259.545 223.397 236.316 234.176 220.971 234.176C208.17 234.176 197.911 229.508 190.197 220.171C183.414 211.769 180.023 201.711 180.023 189.998C180.023 177.096 184.432 166.911 193.249 159.442C211.222 144.334 233.561 131.9 260.266 122.139C271.118 118.15 277.985 116.155 280.867 116.155C283.75 116.155 286.378 116.664 288.751 117.683C291.21 118.617 293.626 119.847 296 121.375C301.595 125.194 304.393 128.887 304.393 132.451C304.393 135.337 302.613 137.671 299.052 139.454C297.95 140.048 296.085 140.854 293.457 141.873C290.829 142.891 287.607 144.292 283.792 146.074C273.534 150.912 263.53 156.769 253.78 163.644C246.829 169.585 243.353 174.338 243.353 177.903C243.353 181.383 245.811 183.123 250.728 183.123C254.798 183.123 262.936 179.515 275.145 172.301C275.145 172.301 278.748 170.094 285.954 165.681C293.669 160.843 299.857 156.429 304.52 152.44C304.52 152.44 306.47 146.074 310.37 133.343C317.576 110.596 325.588 91.7955 334.405 76.9421C350.004 46.9807 365.688 32 381.457 32C387.222 32 391.8 33.061 395.191 35.1829C401.295 39.0023 404.347 43.2461 404.347 47.9144C404.347 52.4977 403.499 57.3781 401.803 62.5556C400.108 67.733 397.861 72.8681 395.064 77.9607C392.351 83.0532 389.214 88.1034 385.653 93.1111L363.908 121.884C360.262 126.552 357.04 131.093 354.243 135.507C349.326 146.117 346.867 155.198 346.867 162.752C346.867 173.617 350.809 179.049 358.694 179.049C363.187 179.049 371.283 174.338 382.983 164.917L397.988 152.185C405.025 145.904 411.977 141.491 418.844 138.944C420.794 138.181 422.362 137.799 423.549 137.799Z"/>
<path d="M622.185 136.271C624.898 136.271 626.254 138.563 626.254 143.146C626.254 151.039 620.744 161.267 609.723 173.829L602.474 181.213C580.516 203.196 559.83 217.837 540.416 225.137C528.378 229.635 519.73 229.423 514.474 224.5C510.15 220.341 506.717 213.636 504.173 204.384L501.121 193.308L474.035 209.986L458.393 218.898C439.742 229.083 425.753 234.176 416.428 234.176C404.474 234.176 394.513 229.55 386.543 220.299C378.913 211.556 375.098 201.414 375.098 189.87C375.098 178.497 379.634 168.354 388.705 159.442C401.676 146.711 422.15 135.04 450.127 124.431C476.578 114.5 497.942 109.535 514.22 109.535C519.73 109.535 522.486 112.251 522.486 117.683C522.486 121.417 521.765 124.218 520.324 126.086C518.882 127.953 515.915 129.863 511.422 131.815L495.399 138.69C471.661 148.62 454.281 158.933 443.26 169.627C440.123 172.598 438.555 175.484 438.555 178.285C438.555 181.086 440.802 182.486 445.295 182.486C449.703 182.486 459.961 177.733 476.069 168.227L486.624 161.988C502.987 152.143 516.678 147.22 527.699 147.22C537.025 147.22 543.214 151.336 546.266 159.569C547.029 161.776 547.75 164.025 548.428 166.317C549.106 168.524 549.784 170.519 550.462 172.301C551.988 176.46 553.345 178.539 554.532 178.539C555.803 178.539 557.584 177.945 559.873 176.757C562.162 175.484 564.663 173.914 567.376 172.046C570.173 170.094 573.056 167.972 576.023 165.681L591.41 153.331C605.06 141.958 615.318 136.271 622.185 136.271Z"/>
<path d="M640.243 200.056C643.041 198.867 646.94 197 651.942 194.454C682.547 178.752 699.333 170.094 702.301 168.481L707.642 165.553C713.152 161.988 715.696 159.188 715.272 157.15C714.339 152.822 712.008 151.082 708.278 151.931C704.547 152.694 700.647 153.755 696.578 155.113C692.594 156.471 688.355 158.127 683.861 160.079C674.451 163.983 666.185 167.887 659.064 171.792C634.139 186.136 619.133 194.836 614.046 197.891C610.401 206.124 607.137 214.315 604.254 222.463L588.867 266.005C584.035 279.5 579.16 288.624 574.243 293.377C571.615 296.009 568.69 297.324 565.468 297.324C557.499 297.324 551.225 294.523 546.647 288.921C542.069 283.404 539.78 276.36 539.78 267.787C539.78 259.299 540.883 250.897 543.087 242.579C545.291 234.346 548.343 225.985 552.243 217.498C560.127 200.353 570.682 184.353 583.908 169.5C591.961 147.856 605.357 126.85 624.093 106.479C635.538 94.0872 646.177 85.3449 656.012 80.2523C660.929 77.706 665.125 76.4329 668.601 76.4329C672.077 76.4329 674.705 77.2392 676.486 78.8519C678.266 80.3796 679.156 82.3318 679.156 84.7083C679.156 87 678.435 89.9282 676.994 93.4931C675.553 97.0579 673.603 101.047 671.145 105.461C668.686 109.874 665.804 114.585 662.497 119.593L651.942 134.998C651.094 136.271 650.671 137.417 650.671 138.435C650.671 140.048 651.646 140.854 653.595 140.854C655.8 140.854 659.869 139.454 665.804 136.653L686.15 127.231C703.954 119.168 720.994 115.137 737.272 115.137C745.75 115.137 753.719 119.168 761.179 127.231C768.725 135.38 772.497 144.122 772.497 153.458C772.497 167.887 766.605 179.006 754.821 186.815L739.052 197.255C733.372 200.819 727.522 204.342 721.503 207.822L703.191 217.88C682.59 228.574 666.651 233.921 655.376 233.921C644.185 233.921 636.046 232.521 630.96 229.72C625.873 226.919 623.33 222.972 623.33 217.88C623.33 211.005 628.967 205.063 640.243 200.056Z"/>
<path d="M909.33 144.674C917.638 144.674 921.792 147.559 921.792 153.331C921.792 158.848 917.892 165.978 910.093 174.72L903.861 181.213C896.316 188.937 887.499 196.533 877.41 204.002C867.407 211.471 858.59 217.37 850.96 221.699C833.241 231.545 817.175 236.468 802.763 236.468C789.199 236.468 778.135 232.394 769.572 224.245C762.197 217.201 758.509 209.774 758.509 201.965C758.509 194.157 759.272 186.39 760.798 178.667C762.324 170.943 764.316 163.389 766.775 156.005C771.692 140.981 777.075 128.208 782.925 117.683C784.451 114.797 785.214 112.93 785.214 112.081H768.809C762.62 112.081 757.831 110.638 754.439 107.752C751.048 104.867 749.353 101.599 749.353 97.9491C749.353 94.2994 750.031 91.6258 751.387 89.9282C752.744 88.2307 754.439 87 756.474 86.2361C759.357 85.0478 763.595 84.4537 769.191 84.4537L800.347 84.581C801.025 84.3264 802.382 82.5015 804.416 79.1065L812.173 65.7384C815.48 59.7971 818.786 55.4259 822.093 52.625C825.484 49.8241 829.426 48.4236 833.919 48.4236C838.497 48.4236 842.312 48.848 845.364 49.6968C848.501 50.5455 851.129 51.6065 853.249 52.8796C857.403 55.5957 859.48 58.5664 859.48 61.7917C859.48 63.1497 859.013 64.9745 858.081 67.2662L850.96 84.581L911.364 84.4537C916.62 84.4537 919.249 87.1698 919.249 92.6019C919.249 105.503 907.761 111.954 884.786 111.954L838.243 112.081C837.225 112.59 835.488 115.052 833.029 119.465L827.306 130.032C825.865 132.664 824.848 134.658 824.254 136.016L821.457 142.255C815.776 155.071 812.936 164.323 812.936 170.009C812.936 175.696 814.42 180.449 817.387 184.269C820.439 188.088 824.466 189.998 829.468 189.998C834.47 189.998 839.345 189.022 844.093 187.069C848.925 185.117 853.63 182.741 858.208 179.94C866.516 174.762 873.044 169.967 877.792 165.553C882.54 161.14 886.482 157.787 889.619 155.495C889.619 155.495 892.586 153.416 898.52 149.257C903.098 146.201 906.701 144.674 909.33 144.674Z"/>
<path d="M1009.03 84.7083C1006.57 86.7454 1003.9 88.4429 1001.02 89.8009C998.135 91.0741 994.913 91.7107 991.353 91.7107C987.792 91.7107 984.358 91.1165 981.052 89.9282C977.746 88.74 974.863 87.0849 972.405 84.963C967.064 80.3796 964.393 74.5232 964.393 67.3935C964.393 56.4444 973.549 48.2963 991.861 42.9491C998.05 41.0818 1003.14 40.1481 1007.12 40.1481C1011.11 40.1481 1014.07 40.615 1016.02 41.5486C1018.06 42.3974 1019.71 43.5432 1020.98 44.9861C1023.53 47.8719 1024.8 50.8426 1024.8 53.8981C1024.8 56.8688 1024.42 59.5849 1023.65 62.0463C1022.97 64.5077 1021.96 67.054 1020.6 69.6852C1019.24 72.3164 1017.59 74.9475 1015.64 77.5787C1013.69 80.2099 1011.49 82.5864 1009.03 84.7083ZM976.983 224.882C970.54 228.192 964.266 230.823 958.162 232.775C952.058 234.813 946.039 235.831 940.104 235.831C934.254 235.831 928.15 234.431 921.792 231.63C915.518 228.744 909.923 224.924 905.006 220.171C894.069 209.562 888.601 197.764 888.601 184.778C888.601 172.81 892.162 160.673 899.283 148.366C905.811 137.247 914.12 127.91 924.208 120.356C934.297 112.802 943.665 109.025 952.312 109.025C964.69 109.025 971.303 112.505 972.15 119.465C972.405 121.587 972.532 124.049 972.532 126.85C972.532 129.65 971.854 132.876 970.497 136.525C969.226 140.09 967.53 143.698 965.41 147.347C963.376 150.912 961.087 154.434 958.543 157.914C956.085 161.309 953.711 164.407 951.422 167.208C947.014 172.556 943.495 176.417 940.867 178.794C940.867 181.68 943.029 184.65 947.353 187.706C951.422 190.592 954.856 192.035 957.653 192.035C960.536 192.035 963.884 191.356 967.699 189.998C971.599 188.64 975.584 186.815 979.653 184.523C983.807 182.231 988.004 179.6 992.243 176.63C996.567 173.659 1000.81 170.603 1004.96 167.463L1028.23 149.257C1037.47 142.552 1044.98 139.199 1050.74 139.199C1053.03 139.199 1054.77 140.048 1055.95 141.745C1057.23 143.358 1057.86 145.268 1057.86 147.475C1057.86 149.681 1056.76 152.737 1054.55 156.641C1052.35 160.461 1049.3 164.704 1045.4 169.373C1041.58 174.041 1037.09 178.921 1031.92 184.014C1026.75 189.106 1021.15 194.114 1015.13 199.037C1009.11 203.96 1002.84 208.671 996.312 213.169C989.869 217.583 983.426 221.487 976.983 224.882Z"/>
<path d="M1102.5 212.023C1094.44 216.267 1086.22 219.747 1077.83 222.463C1069.52 225.094 1061.72 226.41 1054.43 226.41C1047.14 226.41 1038.91 223.1 1029.76 216.479C1028.4 223.863 1027.17 231.205 1026.07 238.505C1024.88 245.889 1023.48 252.934 1021.87 259.639C1020.26 266.344 1018.27 272.583 1015.9 278.354C1013.44 284.126 1010.26 289.091 1006.36 293.25C997.796 302.332 985.884 306.873 970.624 306.873C968.251 306.873 966.301 305.981 964.775 304.199C962.062 300.974 960.96 297.282 961.468 293.123C961.977 289.049 963.588 283.192 966.301 275.553C969.014 267.914 972.447 259.469 976.601 250.218C980.755 241.051 985.418 231.29 990.59 220.935L1006.99 189.616C1005.13 185.202 1004.2 181.255 1004.2 177.775C1004.2 174.296 1004.79 170.816 1005.98 167.336C1007.16 163.856 1008.82 160.588 1010.94 157.532C1015.77 150.318 1021.15 146.711 1027.09 146.711C1028.19 146.711 1029.33 146.838 1030.52 147.093C1052.73 109.407 1065.49 87.9336 1068.8 82.6713L1075.79 71.7222C1088.85 52.4552 1101.23 40.912 1112.92 37.0926C1116.91 35.8194 1120.98 35.1829 1125.13 35.1829C1129.29 35.1829 1132.68 36.6258 1135.31 39.5116C1138.02 42.3974 1139.38 46.9807 1139.38 53.2616C1139.38 71.1705 1129.37 91.7531 1109.36 115.009L1076.3 151.676C1070.45 158.042 1064.86 164.577 1059.51 171.282C1062.31 174.508 1064.9 177.309 1067.27 179.685C1069.65 181.977 1071.6 183.123 1073.12 183.123C1074.73 183.123 1077.06 182.613 1080.12 181.595C1083.17 180.492 1086.64 179.049 1090.54 177.266C1094.53 175.484 1098.77 173.447 1103.26 171.155C1107.75 168.779 1112.12 166.36 1116.36 163.898C1125.68 158.466 1132.38 154.01 1136.45 150.53C1143.57 144.504 1149.17 141.491 1153.24 141.491C1156.2 141.491 1158.37 142.17 1159.72 143.528C1161.93 145.735 1163.03 148.366 1163.03 151.421C1163.03 154.392 1161.38 158.593 1158.07 164.025C1154.85 169.373 1150.44 174.89 1144.84 180.576C1139.33 186.178 1132.93 191.738 1125.64 197.255C1118.35 202.772 1110.64 207.694 1102.5 212.023Z"/>
<path d="M1181.85 177.775C1181.85 181.68 1184.44 183.632 1189.61 183.632C1200.12 183.632 1218.01 170.519 1243.27 144.292L1255.61 131.815C1264 123.582 1269.55 119.465 1272.27 119.465C1274.98 119.465 1277.4 119.932 1279.51 120.866C1281.63 121.799 1283.5 122.988 1285.11 124.431C1288.42 127.401 1290.07 130.584 1290.07 133.979C1290.07 137.289 1289.69 140.981 1288.92 145.056C1288.25 149.045 1287.14 153.543 1285.62 158.551C1282.82 167.887 1277.78 180.407 1270.49 196.109L1265.27 207.313L1286.89 187.706L1331.14 149.766C1335.64 146.371 1339.37 144.674 1342.34 144.674C1348.78 144.674 1352 147.772 1352 153.968C1352 160.333 1347.85 168.524 1339.54 178.539C1336.99 181.68 1334.24 184.608 1331.27 187.324L1301.26 213.424L1242.76 262.949C1237.59 267.448 1233.69 271.012 1231.06 273.644C1227.93 278.736 1225.47 282.513 1223.69 284.975C1221.99 287.521 1220.3 290.194 1218.6 292.995C1216.91 295.881 1215.25 298.343 1213.64 300.38C1210.17 304.793 1206.69 307 1203.21 307C1199.57 307 1196.05 305.515 1192.66 302.544C1186.39 297.027 1183.25 292.104 1183.25 287.775C1183.25 283.447 1184.44 278.397 1186.81 272.625C1189.18 266.938 1192.28 260.403 1196.09 253.019L1223.05 203.238C1210.08 214.951 1199.91 222.718 1192.53 226.537C1185.16 230.272 1178.92 232.733 1173.84 233.921C1168.84 235.194 1163.5 235.831 1157.82 235.831C1152.22 235.831 1147.3 234.643 1143.06 232.266C1138.82 229.975 1135.31 226.877 1132.51 222.972C1127.08 215.248 1124.37 205.191 1124.37 192.799C1124.37 179.643 1127.68 166.657 1134.29 153.84C1140.65 141.279 1149.04 131.178 1159.47 123.539C1170.49 115.391 1181.81 111.317 1193.42 111.317C1205.04 111.317 1210.84 115.858 1210.84 124.94C1210.84 130.627 1206.01 139.072 1196.35 150.275C1186.68 161.394 1181.85 170.561 1181.85 177.775Z"/>
</mask>
<path d="M231.272 138.308C235.341 138.308 237.376 140.6 237.376 145.183C237.376 148.238 236.316 152.1 234.197 156.769C232.162 161.352 229.195 165.681 225.295 169.755C221.395 173.744 216.902 177.903 211.815 182.231C206.813 186.56 200.921 191.101 194.139 195.854C187.441 200.607 180.023 205.318 171.884 209.986C163.746 214.654 155.098 218.856 145.942 222.59C125.68 230.908 106.054 235.067 87.0636 235.067C72.5665 235.067 59.8921 231.29 49.0405 223.736C37.6802 215.843 32 206.252 32 194.963C32 177.224 41.5376 160.376 60.6127 144.419C77.0597 130.669 96.4316 120.017 118.728 112.463C132.293 107.88 143.78 105.588 153.191 105.588C160.821 105.588 167.264 107.455 172.52 111.19C178.116 115.264 180.913 120.738 180.913 127.613C180.913 138.393 172.393 150.318 155.353 163.389C152.64 165.511 150.181 167.293 147.977 168.736L143.399 171.792C134.921 177.733 122.035 184.396 104.74 191.78C110.081 194.581 115.04 195.981 119.619 195.981C124.281 195.981 128.435 195.43 132.081 194.326C135.811 193.223 140.008 191.653 144.671 189.616C149.333 187.579 154.293 185.16 159.549 182.359C164.89 179.473 170.274 176.333 175.699 172.938C187.823 165.383 198.335 157.66 207.237 149.766C211.9 145.438 217.834 142 225.04 139.454C227.414 138.69 229.491 138.308 231.272 138.308ZM91.0058 174.083L98 170.519C100.289 169.33 102.324 168.227 104.104 167.208C121.229 157.363 130.979 151.294 133.353 149.002C135.726 146.711 136.913 145.14 136.913 144.292C136.913 143.358 136.659 142.297 136.15 141.109C135.642 139.921 134.963 138.86 134.116 137.926C132.081 135.549 129.919 134.361 127.63 134.361C125.341 134.361 122.798 134.785 120 135.634C117.287 136.483 114.532 137.671 111.734 139.199C108.936 140.642 106.224 142.424 103.595 144.546C101.052 146.583 98.8054 148.79 96.8555 151.167C92.3622 156.514 90.1156 161.14 90.1156 165.044C90.1156 168.948 90.4123 171.961 91.0058 174.083Z" fill="white"/>
<path d="M423.549 137.799C427.364 137.799 429.272 139.751 429.272 143.655C429.272 149.851 425.202 158.593 417.064 169.882C411.383 177.775 399.684 188.725 381.965 202.729C360.855 219.28 343.9 227.556 331.098 227.556C321.434 227.556 314.143 223.481 309.225 215.333C306.258 210.411 303.842 203.196 301.977 193.69L290.659 201.838C259.545 223.397 236.316 234.176 220.971 234.176C208.17 234.176 197.911 229.508 190.197 220.171C183.414 211.769 180.023 201.711 180.023 189.998C180.023 177.096 184.432 166.911 193.249 159.442C211.222 144.334 233.561 131.9 260.266 122.139C271.118 118.15 277.985 116.155 280.867 116.155C283.75 116.155 286.378 116.664 288.751 117.683C291.21 118.617 293.626 119.847 296 121.375C301.595 125.194 304.393 128.887 304.393 132.451C304.393 135.337 302.613 137.671 299.052 139.454C297.95 140.048 296.085 140.854 293.457 141.873C290.829 142.891 287.607 144.292 283.792 146.074C273.534 150.912 263.53 156.769 253.78 163.644C246.829 169.585 243.353 174.338 243.353 177.903C243.353 181.383 245.811 183.123 250.728 183.123C254.798 183.123 262.936 179.515 275.145 172.301C275.145 172.301 278.748 170.094 285.954 165.681C293.669 160.843 299.857 156.429 304.52 152.44C304.52 152.44 306.47 146.074 310.37 133.343C317.576 110.596 325.588 91.7955 334.405 76.9421C350.004 46.9807 365.688 32 381.457 32C387.222 32 391.8 33.061 395.191 35.1829C401.295 39.0023 404.347 43.2461 404.347 47.9144C404.347 52.4977 403.499 57.3781 401.803 62.5556C400.108 67.733 397.861 72.8681 395.064 77.9607C392.351 83.0532 389.214 88.1034 385.653 93.1111L363.908 121.884C360.262 126.552 357.04 131.093 354.243 135.507C349.326 146.117 346.867 155.198 346.867 162.752C346.867 173.617 350.809 179.049 358.694 179.049C363.187 179.049 371.283 174.338 382.983 164.917L397.988 152.185C405.025 145.904 411.977 141.491 418.844 138.944C420.794 138.181 422.362 137.799 423.549 137.799Z" fill="white"/>
<path d="M622.185 136.271C624.898 136.271 626.254 138.563 626.254 143.146C626.254 151.039 620.744 161.267 609.723 173.829L602.474 181.213C580.516 203.196 559.83 217.837 540.416 225.137C528.378 229.635 519.73 229.423 514.474 224.5C510.15 220.341 506.717 213.636 504.173 204.384L501.121 193.308L474.035 209.986L458.393 218.898C439.742 229.083 425.753 234.176 416.428 234.176C404.474 234.176 394.513 229.55 386.543 220.299C378.913 211.556 375.098 201.414 375.098 189.87C375.098 178.497 379.634 168.354 388.705 159.442C401.676 146.711 422.15 135.04 450.127 124.431C476.578 114.5 497.942 109.535 514.22 109.535C519.73 109.535 522.486 112.251 522.486 117.683C522.486 121.417 521.765 124.218 520.324 126.086C518.882 127.953 515.915 129.863 511.422 131.815L495.399 138.69C471.661 148.62 454.281 158.933 443.26 169.627C440.123 172.598 438.555 175.484 438.555 178.285C438.555 181.086 440.802 182.486 445.295 182.486C449.703 182.486 459.961 177.733 476.069 168.227L486.624 161.988C502.987 152.143 516.678 147.22 527.699 147.22C537.025 147.22 543.214 151.336 546.266 159.569C547.029 161.776 547.75 164.025 548.428 166.317C549.106 168.524 549.784 170.519 550.462 172.301C551.988 176.46 553.345 178.539 554.532 178.539C555.803 178.539 557.584 177.945 559.873 176.757C562.162 175.484 564.663 173.914 567.376 172.046C570.173 170.094 573.056 167.972 576.023 165.681L591.41 153.331C605.06 141.958 615.318 136.271 622.185 136.271Z" fill="white"/>
<path d="M640.243 200.056C643.041 198.867 646.94 197 651.942 194.454C682.547 178.752 699.333 170.094 702.301 168.481L707.642 165.553C713.152 161.988 715.696 159.188 715.272 157.15C714.339 152.822 712.008 151.082 708.278 151.931C704.547 152.694 700.647 153.755 696.578 155.113C692.594 156.471 688.355 158.127 683.861 160.079C674.451 163.983 666.185 167.887 659.064 171.792C634.139 186.136 619.133 194.836 614.046 197.891C610.401 206.124 607.137 214.315 604.254 222.463L588.867 266.005C584.035 279.5 579.16 288.624 574.243 293.377C571.615 296.009 568.69 297.324 565.468 297.324C557.499 297.324 551.225 294.523 546.647 288.921C542.069 283.404 539.78 276.36 539.78 267.787C539.78 259.299 540.883 250.897 543.087 242.579C545.291 234.346 548.343 225.985 552.243 217.498C560.127 200.353 570.682 184.353 583.908 169.5C591.961 147.856 605.357 126.85 624.093 106.479C635.538 94.0872 646.177 85.3449 656.012 80.2523C660.929 77.706 665.125 76.4329 668.601 76.4329C672.077 76.4329 674.705 77.2392 676.486 78.8519C678.266 80.3796 679.156 82.3318 679.156 84.7083C679.156 87 678.435 89.9282 676.994 93.4931C675.553 97.0579 673.603 101.047 671.145 105.461C668.686 109.874 665.804 114.585 662.497 119.593L651.942 134.998C651.094 136.271 650.671 137.417 650.671 138.435C650.671 140.048 651.646 140.854 653.595 140.854C655.8 140.854 659.869 139.454 665.804 136.653L686.15 127.231C703.954 119.168 720.994 115.137 737.272 115.137C745.75 115.137 753.719 119.168 761.179 127.231C768.725 135.38 772.497 144.122 772.497 153.458C772.497 167.887 766.605 179.006 754.821 186.815L739.052 197.255C733.372 200.819 727.522 204.342 721.503 207.822L703.191 217.88C682.59 228.574 666.651 233.921 655.376 233.921C644.185 233.921 636.046 232.521 630.96 229.72C625.873 226.919 623.33 222.972 623.33 217.88C623.33 211.005 628.967 205.063 640.243 200.056Z" fill="white"/>
<path d="M909.33 144.674C917.638 144.674 921.792 147.559 921.792 153.331C921.792 158.848 917.892 165.978 910.093 174.72L903.861 181.213C896.316 188.937 887.499 196.533 877.41 204.002C867.407 211.471 858.59 217.37 850.96 221.699C833.241 231.545 817.175 236.468 802.763 236.468C789.199 236.468 778.135 232.394 769.572 224.245C762.197 217.201 758.509 209.774 758.509 201.965C758.509 194.157 759.272 186.39 760.798 178.667C762.324 170.943 764.316 163.389 766.775 156.005C771.692 140.981 777.075 128.208 782.925 117.683C784.451 114.797 785.214 112.93 785.214 112.081H768.809C762.62 112.081 757.831 110.638 754.439 107.752C751.048 104.867 749.353 101.599 749.353 97.9491C749.353 94.2994 750.031 91.6258 751.387 89.9282C752.744 88.2307 754.439 87 756.474 86.2361C759.357 85.0478 763.595 84.4537 769.191 84.4537L800.347 84.581C801.025 84.3264 802.382 82.5015 804.416 79.1065L812.173 65.7384C815.48 59.7971 818.786 55.4259 822.093 52.625C825.484 49.8241 829.426 48.4236 833.919 48.4236C838.497 48.4236 842.312 48.848 845.364 49.6968C848.501 50.5455 851.129 51.6065 853.249 52.8796C857.403 55.5957 859.48 58.5664 859.48 61.7917C859.48 63.1497 859.013 64.9745 858.081 67.2662L850.96 84.581L911.364 84.4537C916.62 84.4537 919.249 87.1698 919.249 92.6019C919.249 105.503 907.761 111.954 884.786 111.954L838.243 112.081C837.225 112.59 835.488 115.052 833.029 119.465L827.306 130.032C825.865 132.664 824.848 134.658 824.254 136.016L821.457 142.255C815.776 155.071 812.936 164.323 812.936 170.009C812.936 175.696 814.42 180.449 817.387 184.269C820.439 188.088 824.466 189.998 829.468 189.998C834.47 189.998 839.345 189.022 844.093 187.069C848.925 185.117 853.63 182.741 858.208 179.94C866.516 174.762 873.044 169.967 877.792 165.553C882.54 161.14 886.482 157.787 889.619 155.495C889.619 155.495 892.586 153.416 898.52 149.257C903.098 146.201 906.701 144.674 909.33 144.674Z" fill="white"/>
<path d="M1009.03 84.7083C1006.57 86.7454 1003.9 88.4429 1001.02 89.8009C998.135 91.0741 994.913 91.7107 991.353 91.7107C987.792 91.7107 984.358 91.1165 981.052 89.9282C977.746 88.74 974.863 87.0849 972.405 84.963C967.064 80.3796 964.393 74.5232 964.393 67.3935C964.393 56.4444 973.549 48.2963 991.861 42.9491C998.05 41.0818 1003.14 40.1481 1007.12 40.1481C1011.11 40.1481 1014.07 40.615 1016.02 41.5486C1018.06 42.3974 1019.71 43.5432 1020.98 44.9861C1023.53 47.8719 1024.8 50.8426 1024.8 53.8981C1024.8 56.8688 1024.42 59.5849 1023.65 62.0463C1022.97 64.5077 1021.96 67.054 1020.6 69.6852C1019.24 72.3164 1017.59 74.9475 1015.64 77.5787C1013.69 80.2099 1011.49 82.5864 1009.03 84.7083ZM976.983 224.882C970.54 228.192 964.266 230.823 958.162 232.775C952.058 234.813 946.039 235.831 940.104 235.831C934.254 235.831 928.15 234.431 921.792 231.63C915.518 228.744 909.923 224.924 905.006 220.171C894.069 209.562 888.601 197.764 888.601 184.778C888.601 172.81 892.162 160.673 899.283 148.366C905.811 137.247 914.12 127.91 924.208 120.356C934.297 112.802 943.665 109.025 952.312 109.025C964.69 109.025 971.303 112.505 972.15 119.465C972.405 121.587 972.532 124.049 972.532 126.85C972.532 129.65 971.854 132.876 970.497 136.525C969.226 140.09 967.53 143.698 965.41 147.347C963.376 150.912 961.087 154.434 958.543 157.914C956.085 161.309 953.711 164.407 951.422 167.208C947.014 172.556 943.495 176.417 940.867 178.794C940.867 181.68 943.029 184.65 947.353 187.706C951.422 190.592 954.856 192.035 957.653 192.035C960.536 192.035 963.884 191.356 967.699 189.998C971.599 188.64 975.584 186.815 979.653 184.523C983.807 182.231 988.004 179.6 992.243 176.63C996.567 173.659 1000.81 170.603 1004.96 167.463L1028.23 149.257C1037.47 142.552 1044.98 139.199 1050.74 139.199C1053.03 139.199 1054.77 140.048 1055.95 141.745C1057.23 143.358 1057.86 145.268 1057.86 147.475C1057.86 149.681 1056.76 152.737 1054.55 156.641C1052.35 160.461 1049.3 164.704 1045.4 169.373C1041.58 174.041 1037.09 178.921 1031.92 184.014C1026.75 189.106 1021.15 194.114 1015.13 199.037C1009.11 203.96 1002.84 208.671 996.312 213.169C989.869 217.583 983.426 221.487 976.983 224.882Z" fill="white"/>
<path d="M1102.5 212.023C1094.44 216.267 1086.22 219.747 1077.83 222.463C1069.52 225.094 1061.72 226.41 1054.43 226.41C1047.14 226.41 1038.91 223.1 1029.76 216.479C1028.4 223.863 1027.17 231.205 1026.07 238.505C1024.88 245.889 1023.48 252.934 1021.87 259.639C1020.26 266.344 1018.27 272.583 1015.9 278.354C1013.44 284.126 1010.26 289.091 1006.36 293.25C997.796 302.332 985.884 306.873 970.624 306.873C968.251 306.873 966.301 305.981 964.775 304.199C962.062 300.974 960.96 297.282 961.468 293.123C961.977 289.049 963.588 283.192 966.301 275.553C969.014 267.914 972.447 259.469 976.601 250.218C980.755 241.051 985.418 231.29 990.59 220.935L1006.99 189.616C1005.13 185.202 1004.2 181.255 1004.2 177.775C1004.2 174.296 1004.79 170.816 1005.98 167.336C1007.16 163.856 1008.82 160.588 1010.94 157.532C1015.77 150.318 1021.15 146.711 1027.09 146.711C1028.19 146.711 1029.33 146.838 1030.52 147.093C1052.73 109.407 1065.49 87.9336 1068.8 82.6713L1075.79 71.7222C1088.85 52.4552 1101.23 40.912 1112.92 37.0926C1116.91 35.8194 1120.98 35.1829 1125.13 35.1829C1129.29 35.1829 1132.68 36.6258 1135.31 39.5116C1138.02 42.3974 1139.38 46.9807 1139.38 53.2616C1139.38 71.1705 1129.37 91.7531 1109.36 115.009L1076.3 151.676C1070.45 158.042 1064.86 164.577 1059.51 171.282C1062.31 174.508 1064.9 177.309 1067.27 179.685C1069.65 181.977 1071.6 183.123 1073.12 183.123C1074.73 183.123 1077.06 182.613 1080.12 181.595C1083.17 180.492 1086.64 179.049 1090.54 177.266C1094.53 175.484 1098.77 173.447 1103.26 171.155C1107.75 168.779 1112.12 166.36 1116.36 163.898C1125.68 158.466 1132.38 154.01 1136.45 150.53C1143.57 144.504 1149.17 141.491 1153.24 141.491C1156.2 141.491 1158.37 142.17 1159.72 143.528C1161.93 145.735 1163.03 148.366 1163.03 151.421C1163.03 154.392 1161.38 158.593 1158.07 164.025C1154.85 169.373 1150.44 174.89 1144.84 180.576C1139.33 186.178 1132.93 191.738 1125.64 197.255C1118.35 202.772 1110.64 207.694 1102.5 212.023Z" fill="white"/>
<path d="M1181.85 177.775C1181.85 181.68 1184.44 183.632 1189.61 183.632C1200.12 183.632 1218.01 170.519 1243.27 144.292L1255.61 131.815C1264 123.582 1269.55 119.465 1272.27 119.465C1274.98 119.465 1277.4 119.932 1279.51 120.866C1281.63 121.799 1283.5 122.988 1285.11 124.431C1288.42 127.401 1290.07 130.584 1290.07 133.979C1290.07 137.289 1289.69 140.981 1288.92 145.056C1288.25 149.045 1287.14 153.543 1285.62 158.551C1282.82 167.887 1277.78 180.407 1270.49 196.109L1265.27 207.313L1286.89 187.706L1331.14 149.766C1335.64 146.371 1339.37 144.674 1342.34 144.674C1348.78 144.674 1352 147.772 1352 153.968C1352 160.333 1347.85 168.524 1339.54 178.539C1336.99 181.68 1334.24 184.608 1331.27 187.324L1301.26 213.424L1242.76 262.949C1237.59 267.448 1233.69 271.012 1231.06 273.644C1227.93 278.736 1225.47 282.513 1223.69 284.975C1221.99 287.521 1220.3 290.194 1218.6 292.995C1216.91 295.881 1215.25 298.343 1213.64 300.38C1210.17 304.793 1206.69 307 1203.21 307C1199.57 307 1196.05 305.515 1192.66 302.544C1186.39 297.027 1183.25 292.104 1183.25 287.775C1183.25 283.447 1184.44 278.397 1186.81 272.625C1189.18 266.938 1192.28 260.403 1196.09 253.019L1223.05 203.238C1210.08 214.951 1199.91 222.718 1192.53 226.537C1185.16 230.272 1178.92 232.733 1173.84 233.921C1168.84 235.194 1163.5 235.831 1157.82 235.831C1152.22 235.831 1147.3 234.643 1143.06 232.266C1138.82 229.975 1135.31 226.877 1132.51 222.972C1127.08 215.248 1124.37 205.191 1124.37 192.799C1124.37 179.643 1127.68 166.657 1134.29 153.84C1140.65 141.279 1149.04 131.178 1159.47 123.539C1170.49 115.391 1181.81 111.317 1193.42 111.317C1205.04 111.317 1210.84 115.858 1210.84 124.94C1210.84 130.627 1206.01 139.072 1196.35 150.275C1186.68 161.394 1181.85 170.561 1181.85 177.775Z" fill="white"/>
<path d="M231.272 138.308C235.341 138.308 237.376 140.6 237.376 145.183C237.376 148.238 236.316 152.1 234.197 156.769C232.162 161.352 229.195 165.681 225.295 169.755C221.395 173.744 216.902 177.903 211.815 182.231C206.813 186.56 200.921 191.101 194.139 195.854C187.441 200.607 180.023 205.318 171.884 209.986C163.746 214.654 155.098 218.856 145.942 222.59C125.68 230.908 106.054 235.067 87.0636 235.067C72.5665 235.067 59.8921 231.29 49.0405 223.736C37.6802 215.843 32 206.252 32 194.963C32 177.224 41.5376 160.376 60.6127 144.419C77.0597 130.669 96.4316 120.017 118.728 112.463C132.293 107.88 143.78 105.588 153.191 105.588C160.821 105.588 167.264 107.455 172.52 111.19C178.116 115.264 180.913 120.738 180.913 127.613C180.913 138.393 172.393 150.318 155.353 163.389C152.64 165.511 150.181 167.293 147.977 168.736L143.399 171.792C134.921 177.733 122.035 184.396 104.74 191.78C110.081 194.581 115.04 195.981 119.619 195.981C124.281 195.981 128.435 195.43 132.081 194.326C135.811 193.223 140.008 191.653 144.671 189.616C149.333 187.579 154.293 185.16 159.549 182.359C164.89 179.473 170.274 176.333 175.699 172.938C187.823 165.383 198.335 157.66 207.237 149.766C211.9 145.438 217.834 142 225.04 139.454C227.414 138.69 229.491 138.308 231.272 138.308ZM91.0058 174.083L98 170.519C100.289 169.33 102.324 168.227 104.104 167.208C121.229 157.363 130.979 151.294 133.353 149.002C135.726 146.711 136.913 145.14 136.913 144.292C136.913 143.358 136.659 142.297 136.15 141.109C135.642 139.921 134.963 138.86 134.116 137.926C132.081 135.549 129.919 134.361 127.63 134.361C125.341 134.361 122.798 134.785 120 135.634C117.287 136.483 114.532 137.671 111.734 139.199C108.936 140.642 106.224 142.424 103.595 144.546C101.052 146.583 98.8054 148.79 96.8555 151.167C92.3622 156.514 90.1156 161.14 90.1156 165.044C90.1156 168.948 90.4123 171.961 91.0058 174.083Z" stroke="black" stroke-width="64" mask="url(#path-1-outside-1_29_12)"/>
<path d="M423.549 137.799C427.364 137.799 429.272 139.751 429.272 143.655C429.272 149.851 425.202 158.593 417.064 169.882C411.383 177.775 399.684 188.725 381.965 202.729C360.855 219.28 343.9 227.556 331.098 227.556C321.434 227.556 314.143 223.481 309.225 215.333C306.258 210.411 303.842 203.196 301.977 193.69L290.659 201.838C259.545 223.397 236.316 234.176 220.971 234.176C208.17 234.176 197.911 229.508 190.197 220.171C183.414 211.769 180.023 201.711 180.023 189.998C180.023 177.096 184.432 166.911 193.249 159.442C211.222 144.334 233.561 131.9 260.266 122.139C271.118 118.15 277.985 116.155 280.867 116.155C283.75 116.155 286.378 116.664 288.751 117.683C291.21 118.617 293.626 119.847 296 121.375C301.595 125.194 304.393 128.887 304.393 132.451C304.393 135.337 302.613 137.671 299.052 139.454C297.95 140.048 296.085 140.854 293.457 141.873C290.829 142.891 287.607 144.292 283.792 146.074C273.534 150.912 263.53 156.769 253.78 163.644C246.829 169.585 243.353 174.338 243.353 177.903C243.353 181.383 245.811 183.123 250.728 183.123C254.798 183.123 262.936 179.515 275.145 172.301C275.145 172.301 278.748 170.094 285.954 165.681C293.669 160.843 299.857 156.429 304.52 152.44C304.52 152.44 306.47 146.074 310.37 133.343C317.576 110.596 325.588 91.7955 334.405 76.9421C350.004 46.9807 365.688 32 381.457 32C387.222 32 391.8 33.061 395.191 35.1829C401.295 39.0023 404.347 43.2461 404.347 47.9144C404.347 52.4977 403.499 57.3781 401.803 62.5556C400.108 67.733 397.861 72.8681 395.064 77.9607C392.351 83.0532 389.214 88.1034 385.653 93.1111L363.908 121.884C360.262 126.552 357.04 131.093 354.243 135.507C349.326 146.117 346.867 155.198 346.867 162.752C346.867 173.617 350.809 179.049 358.694 179.049C363.187 179.049 371.283 174.338 382.983 164.917L397.988 152.185C405.025 145.904 411.977 141.491 418.844 138.944C420.794 138.181 422.362 137.799 423.549 137.799Z" stroke="black" stroke-width="64" mask="url(#path-1-outside-1_29_12)"/>
<path d="M622.185 136.271C624.898 136.271 626.254 138.563 626.254 143.146C626.254 151.039 620.744 161.267 609.723 173.829L602.474 181.213C580.516 203.196 559.83 217.837 540.416 225.137C528.378 229.635 519.73 229.423 514.474 224.5C510.15 220.341 506.717 213.636 504.173 204.384L501.121 193.308L474.035 209.986L458.393 218.898C439.742 229.083 425.753 234.176 416.428 234.176C404.474 234.176 394.513 229.55 386.543 220.299C378.913 211.556 375.098 201.414 375.098 189.87C375.098 178.497 379.634 168.354 388.705 159.442C401.676 146.711 422.15 135.04 450.127 124.431C476.578 114.5 497.942 109.535 514.22 109.535C519.73 109.535 522.486 112.251 522.486 117.683C522.486 121.417 521.765 124.218 520.324 126.086C518.882 127.953 515.915 129.863 511.422 131.815L495.399 138.69C471.661 148.62 454.281 158.933 443.26 169.627C440.123 172.598 438.555 175.484 438.555 178.285C438.555 181.086 440.802 182.486 445.295 182.486C449.703 182.486 459.961 177.733 476.069 168.227L486.624 161.988C502.987 152.143 516.678 147.22 527.699 147.22C537.025 147.22 543.214 151.336 546.266 159.569C547.029 161.776 547.75 164.025 548.428 166.317C549.106 168.524 549.784 170.519 550.462 172.301C551.988 176.46 553.345 178.539 554.532 178.539C555.803 178.539 557.584 177.945 559.873 176.757C562.162 175.484 564.663 173.914 567.376 172.046C570.173 170.094 573.056 167.972 576.023 165.681L591.41 153.331C605.06 141.958 615.318 136.271 622.185 136.271Z" stroke="black" stroke-width="64" mask="url(#path-1-outside-1_29_12)"/>
<path d="M640.243 200.056C643.041 198.867 646.94 197 651.942 194.454C682.547 178.752 699.333 170.094 702.301 168.481L707.642 165.553C713.152 161.988 715.696 159.188 715.272 157.15C714.339 152.822 712.008 151.082 708.278 151.931C704.547 152.694 700.647 153.755 696.578 155.113C692.594 156.471 688.355 158.127 683.861 160.079C674.451 163.983 666.185 167.887 659.064 171.792C634.139 186.136 619.133 194.836 614.046 197.891C610.401 206.124 607.137 214.315 604.254 222.463L588.867 266.005C584.035 279.5 579.16 288.624 574.243 293.377C571.615 296.009 568.69 297.324 565.468 297.324C557.499 297.324 551.225 294.523 546.647 288.921C542.069 283.404 539.78 276.36 539.78 267.787C539.78 259.299 540.883 250.897 543.087 242.579C545.291 234.346 548.343 225.985 552.243 217.498C560.127 200.353 570.682 184.353 583.908 169.5C591.961 147.856 605.357 126.85 624.093 106.479C635.538 94.0872 646.177 85.3449 656.012 80.2523C660.929 77.706 665.125 76.4329 668.601 76.4329C672.077 76.4329 674.705 77.2392 676.486 78.8519C678.266 80.3796 679.156 82.3318 679.156 84.7083C679.156 87 678.435 89.9282 676.994 93.4931C675.553 97.0579 673.603 101.047 671.145 105.461C668.686 109.874 665.804 114.585 662.497 119.593L651.942 134.998C651.094 136.271 650.671 137.417 650.671 138.435C650.671 140.048 651.646 140.854 653.595 140.854C655.8 140.854 659.869 139.454 665.804 136.653L686.15 127.231C703.954 119.168 720.994 115.137 737.272 115.137C745.75 115.137 753.719 119.168 761.179 127.231C768.725 135.38 772.497 144.122 772.497 153.458C772.497 167.887 766.605 179.006 754.821 186.815L739.052 197.255C733.372 200.819 727.522 204.342 721.503 207.822L703.191 217.88C682.59 228.574 666.651 233.921 655.376 233.921C644.185 233.921 636.046 232.521 630.96 229.72C625.873 226.919 623.33 222.972 623.33 217.88C623.33 211.005 628.967 205.063 640.243 200.056Z" stroke="black" stroke-width="64" mask="url(#path-1-outside-1_29_12)"/>
<path d="M909.33 144.674C917.638 144.674 921.792 147.559 921.792 153.331C921.792 158.848 917.892 165.978 910.093 174.72L903.861 181.213C896.316 188.937 887.499 196.533 877.41 204.002C867.407 211.471 858.59 217.37 850.96 221.699C833.241 231.545 817.175 236.468 802.763 236.468C789.199 236.468 778.135 232.394 769.572 224.245C762.197 217.201 758.509 209.774 758.509 201.965C758.509 194.157 759.272 186.39 760.798 178.667C762.324 170.943 764.316 163.389 766.775 156.005C771.692 140.981 777.075 128.208 782.925 117.683C784.451 114.797 785.214 112.93 785.214 112.081H768.809C762.62 112.081 757.831 110.638 754.439 107.752C751.048 104.867 749.353 101.599 749.353 97.9491C749.353 94.2994 750.031 91.6258 751.387 89.9282C752.744 88.2307 754.439 87 756.474 86.2361C759.357 85.0478 763.595 84.4537 769.191 84.4537L800.347 84.581C801.025 84.3264 802.382 82.5015 804.416 79.1065L812.173 65.7384C815.48 59.7971 818.786 55.4259 822.093 52.625C825.484 49.8241 829.426 48.4236 833.919 48.4236C838.497 48.4236 842.312 48.848 845.364 49.6968C848.501 50.5455 851.129 51.6065 853.249 52.8796C857.403 55.5957 859.48 58.5664 859.48 61.7917C859.48 63.1497 859.013 64.9745 858.081 67.2662L850.96 84.581L911.364 84.4537C916.62 84.4537 919.249 87.1698 919.249 92.6019C919.249 105.503 907.761 111.954 884.786 111.954L838.243 112.081C837.225 112.59 835.488 115.052 833.029 119.465L827.306 130.032C825.865 132.664 824.848 134.658 824.254 136.016L821.457 142.255C815.776 155.071 812.936 164.323 812.936 170.009C812.936 175.696 814.42 180.449 817.387 184.269C820.439 188.088 824.466 189.998 829.468 189.998C834.47 189.998 839.345 189.022 844.093 187.069C848.925 185.117 853.63 182.741 858.208 179.94C866.516 174.762 873.044 169.967 877.792 165.553C882.54 161.14 886.482 157.787 889.619 155.495C889.619 155.495 892.586 153.416 898.52 149.257C903.098 146.201 906.701 144.674 909.33 144.674Z" stroke="black" stroke-width="64" mask="url(#path-1-outside-1_29_12)"/>
<path d="M1009.03 84.7083C1006.57 86.7454 1003.9 88.4429 1001.02 89.8009C998.135 91.0741 994.913 91.7107 991.353 91.7107C987.792 91.7107 984.358 91.1165 981.052 89.9282C977.746 88.74 974.863 87.0849 972.405 84.963C967.064 80.3796 964.393 74.5232 964.393 67.3935C964.393 56.4444 973.549 48.2963 991.861 42.9491C998.05 41.0818 1003.14 40.1481 1007.12 40.1481C1011.11 40.1481 1014.07 40.615 1016.02 41.5486C1018.06 42.3974 1019.71 43.5432 1020.98 44.9861C1023.53 47.8719 1024.8 50.8426 1024.8 53.8981C1024.8 56.8688 1024.42 59.5849 1023.65 62.0463C1022.97 64.5077 1021.96 67.054 1020.6 69.6852C1019.24 72.3164 1017.59 74.9475 1015.64 77.5787C1013.69 80.2099 1011.49 82.5864 1009.03 84.7083ZM976.983 224.882C970.54 228.192 964.266 230.823 958.162 232.775C952.058 234.813 946.039 235.831 940.104 235.831C934.254 235.831 928.15 234.431 921.792 231.63C915.518 228.744 909.923 224.924 905.006 220.171C894.069 209.562 888.601 197.764 888.601 184.778C888.601 172.81 892.162 160.673 899.283 148.366C905.811 137.247 914.12 127.91 924.208 120.356C934.297 112.802 943.665 109.025 952.312 109.025C964.69 109.025 971.303 112.505 972.15 119.465C972.405 121.587 972.532 124.049 972.532 126.85C972.532 129.65 971.854 132.876 970.497 136.525C969.226 140.09 967.53 143.698 965.41 147.347C963.376 150.912 961.087 154.434 958.543 157.914C956.085 161.309 953.711 164.407 951.422 167.208C947.014 172.556 943.495 176.417 940.867 178.794C940.867 181.68 943.029 184.65 947.353 187.706C951.422 190.592 954.856 192.035 957.653 192.035C960.536 192.035 963.884 191.356 967.699 189.998C971.599 188.64 975.584 186.815 979.653 184.523C983.807 182.231 988.004 179.6 992.243 176.63C996.567 173.659 1000.81 170.603 1004.96 167.463L1028.23 149.257C1037.47 142.552 1044.98 139.199 1050.74 139.199C1053.03 139.199 1054.77 140.048 1055.95 141.745C1057.23 143.358 1057.86 145.268 1057.86 147.475C1057.86 149.681 1056.76 152.737 1054.55 156.641C1052.35 160.461 1049.3 164.704 1045.4 169.373C1041.58 174.041 1037.09 178.921 1031.92 184.014C1026.75 189.106 1021.15 194.114 1015.13 199.037C1009.11 203.96 1002.84 208.671 996.312 213.169C989.869 217.583 983.426 221.487 976.983 224.882Z" stroke="black" stroke-width="64" mask="url(#path-1-outside-1_29_12)"/>
<path d="M1102.5 212.023C1094.44 216.267 1086.22 219.747 1077.83 222.463C1069.52 225.094 1061.72 226.41 1054.43 226.41C1047.14 226.41 1038.91 223.1 1029.76 216.479C1028.4 223.863 1027.17 231.205 1026.07 238.505C1024.88 245.889 1023.48 252.934 1021.87 259.639C1020.26 266.344 1018.27 272.583 1015.9 278.354C1013.44 284.126 1010.26 289.091 1006.36 293.25C997.796 302.332 985.884 306.873 970.624 306.873C968.251 306.873 966.301 305.981 964.775 304.199C962.062 300.974 960.96 297.282 961.468 293.123C961.977 289.049 963.588 283.192 966.301 275.553C969.014 267.914 972.447 259.469 976.601 250.218C980.755 241.051 985.418 231.29 990.59 220.935L1006.99 189.616C1005.13 185.202 1004.2 181.255 1004.2 177.775C1004.2 174.296 1004.79 170.816 1005.98 167.336C1007.16 163.856 1008.82 160.588 1010.94 157.532C1015.77 150.318 1021.15 146.711 1027.09 146.711C1028.19 146.711 1029.33 146.838 1030.52 147.093C1052.73 109.407 1065.49 87.9336 1068.8 82.6713L1075.79 71.7222C1088.85 52.4552 1101.23 40.912 1112.92 37.0926C1116.91 35.8194 1120.98 35.1829 1125.13 35.1829C1129.29 35.1829 1132.68 36.6258 1135.31 39.5116C1138.02 42.3974 1139.38 46.9807 1139.38 53.2616C1139.38 71.1705 1129.37 91.7531 1109.36 115.009L1076.3 151.676C1070.45 158.042 1064.86 164.577 1059.51 171.282C1062.31 174.508 1064.9 177.309 1067.27 179.685C1069.65 181.977 1071.6 183.123 1073.12 183.123C1074.73 183.123 1077.06 182.613 1080.12 181.595C1083.17 180.492 1086.64 179.049 1090.54 177.266C1094.53 175.484 1098.77 173.447 1103.26 171.155C1107.75 168.779 1112.12 166.36 1116.36 163.898C1125.68 158.466 1132.38 154.01 1136.45 150.53C1143.57 144.504 1149.17 141.491 1153.24 141.491C1156.2 141.491 1158.37 142.17 1159.72 143.528C1161.93 145.735 1163.03 148.366 1163.03 151.421C1163.03 154.392 1161.38 158.593 1158.07 164.025C1154.85 169.373 1150.44 174.89 1144.84 180.576C1139.33 186.178 1132.93 191.738 1125.64 197.255C1118.35 202.772 1110.64 207.694 1102.5 212.023Z" stroke="black" stroke-width="64" mask="url(#path-1-outside-1_29_12)"/>
<path d="M1181.85 177.775C1181.85 181.68 1184.44 183.632 1189.61 183.632C1200.12 183.632 1218.01 170.519 1243.27 144.292L1255.61 131.815C1264 123.582 1269.55 119.465 1272.27 119.465C1274.98 119.465 1277.4 119.932 1279.51 120.866C1281.63 121.799 1283.5 122.988 1285.11 124.431C1288.42 127.401 1290.07 130.584 1290.07 133.979C1290.07 137.289 1289.69 140.981 1288.92 145.056C1288.25 149.045 1287.14 153.543 1285.62 158.551C1282.82 167.887 1277.78 180.407 1270.49 196.109L1265.27 207.313L1286.89 187.706L1331.14 149.766C1335.64 146.371 1339.37 144.674 1342.34 144.674C1348.78 144.674 1352 147.772 1352 153.968C1352 160.333 1347.85 168.524 1339.54 178.539C1336.99 181.68 1334.24 184.608 1331.27 187.324L1301.26 213.424L1242.76 262.949C1237.59 267.448 1233.69 271.012 1231.06 273.644C1227.93 278.736 1225.47 282.513 1223.69 284.975C1221.99 287.521 1220.3 290.194 1218.6 292.995C1216.91 295.881 1215.25 298.343 1213.64 300.38C1210.17 304.793 1206.69 307 1203.21 307C1199.57 307 1196.05 305.515 1192.66 302.544C1186.39 297.027 1183.25 292.104 1183.25 287.775C1183.25 283.447 1184.44 278.397 1186.81 272.625C1189.18 266.938 1192.28 260.403 1196.09 253.019L1223.05 203.238C1210.08 214.951 1199.91 222.718 1192.53 226.537C1185.16 230.272 1178.92 232.733 1173.84 233.921C1168.84 235.194 1163.5 235.831 1157.82 235.831C1152.22 235.831 1147.3 234.643 1143.06 232.266C1138.82 229.975 1135.31 226.877 1132.51 222.972C1127.08 215.248 1124.37 205.191 1124.37 192.799C1124.37 179.643 1127.68 166.657 1134.29 153.84C1140.65 141.279 1149.04 131.178 1159.47 123.539C1170.49 115.391 1181.81 111.317 1193.42 111.317C1205.04 111.317 1210.84 115.858 1210.84 124.94C1210.84 130.627 1206.01 139.072 1196.35 150.275C1186.68 161.394 1181.85 170.561 1181.85 177.775Z" stroke="black" stroke-width="64" mask="url(#path-1-outside-1_29_12)"/>
</svg>
