<svg width="5371" height="1276" viewBox="0 0 5371 1276" fill="none" xmlns="http://www.w3.org/2000/svg">
<mask id="path-1-outside-1_25_28" maskUnits="userSpaceOnUse" x="0" y="0" width="5371" height="1276" fill="black">
<rect fill="white" width="5371" height="1276"/>
<path fill-rule="evenodd" clip-rule="evenodd" d="M1468.91 100C1491.49 100 1509.43 104.152 1522.71 112.454C1546.62 127.399 1558.58 144.003 1558.58 162.269C1558.58 180.202 1555.26 199.298 1548.62 219.556C1541.97 239.814 1533.17 259.905 1522.21 279.831C1511.59 299.757 1499.3 319.518 1485.35 339.111L1400.17 451.692C1385.89 469.958 1373.27 487.725 1362.31 504.994C1343.05 546.506 1333.42 582.042 1333.42 611.599C1333.42 654.107 1348.86 675.361 1379.74 675.361C1397.34 675.361 1429.06 656.929 1474.89 620.066L1485.78 610.832C1489.39 606.707 1493.23 602.645 1497.31 598.646C1515.1 581.201 1536.5 564.266 1561.5 547.839C1572.77 539.746 1583.98 532.892 1595.14 527.281C1635.33 504.361 1682.92 482.485 1737.91 461.655C1841.53 422.8 1925.21 403.372 1988.98 403.372C2010.56 403.372 2021.36 414 2021.36 435.254C2021.36 449.866 2018.53 460.826 2012.89 468.132C2007.24 475.438 1995.62 482.91 1978.02 490.548L1915.25 517.448C1822.26 556.304 1754.18 596.654 1711.01 638.498C1698.72 650.121 1692.58 661.413 1692.58 672.372C1692.58 683.331 1701.38 688.812 1718.98 688.812C1736.25 688.812 1776.43 670.214 1839.53 633.019L1880.88 608.609C1944.97 570.086 1998.61 550.824 2041.78 550.824C2078.31 550.824 2102.56 566.931 2114.51 599.145C2117.5 607.779 2120.32 616.579 2122.98 625.546C2125.64 634.18 2128.29 641.985 2130.95 648.959C2136.93 665.232 2142.24 673.368 2146.89 673.368C2151.87 673.368 2158.85 671.044 2167.81 666.395C2176.78 661.413 2186.58 655.269 2197.2 647.963C2208.16 640.325 2219.45 632.022 2231.08 623.056L2288.52 577.003C2320.12 513.71 2363.73 451.847 2419.38 391.417C2464.21 342.931 2505.89 308.724 2544.41 288.798C2563.67 278.835 2580.11 273.854 2593.73 273.854C2607.35 273.854 2617.64 277.008 2624.62 283.318C2631.59 289.296 2635.08 296.935 2635.08 306.233C2635.08 315.2 2632.25 326.657 2626.61 340.605C2620.96 354.554 2613.32 370.163 2603.69 387.432C2594.06 404.701 2582.77 423.132 2569.82 442.726L2528.47 503.002C2525.15 507.983 2523.49 512.467 2523.49 516.452C2523.49 522.762 2527.31 525.917 2534.95 525.917C2543.58 525.917 2559.52 520.437 2582.77 509.478L2662.47 472.615C2732.22 441.066 2798.97 425.291 2862.73 425.291C2895.94 425.291 2927.16 441.066 2956.38 472.615C2975.46 493.197 2988.38 514.748 2995.14 537.268C3009.68 498.75 3025.15 464.745 3041.56 435.254C3047.54 423.963 3050.53 416.656 3050.53 413.335H2986.27C2962.03 413.335 2943.26 407.69 2929.98 396.398C2916.7 385.107 2910.05 372.321 2910.05 358.041C2910.05 343.761 2912.71 333.299 2918.02 326.657C2923.34 320.015 2929.98 315.2 2937.95 312.211C2949.24 307.562 2965.85 305.237 2987.76 305.237L3109.81 305.735C3112.47 304.739 3117.78 297.598 3125.75 284.314L3156.14 232.009C3169.09 208.762 3182.04 191.659 3194.99 180.7C3208.28 169.741 3223.72 164.261 3241.32 164.261C3259.26 164.261 3274.2 165.921 3286.16 169.242C3298.44 172.563 3308.74 176.715 3317.04 181.696C3333.31 192.323 3341.45 203.947 3341.45 216.566C3341.45 221.88 3339.62 229.021 3335.97 237.987L3308.07 305.735L3544.69 305.237C3565.28 305.237 3575.58 315.864 3575.58 337.118C3575.58 387.597 3530.58 412.837 3440.58 412.837L3258.26 413.335C3254.27 415.328 3247.47 424.958 3237.83 442.228L3215.42 483.574C3209.77 493.869 3205.79 501.674 3203.46 506.987L3192.5 531.396C3170.25 581.543 3159.13 617.742 3159.13 639.992C3159.13 662.243 3164.94 680.841 3176.56 695.785C3188.52 710.729 3204.29 718.202 3223.89 718.202C3243.48 718.202 3262.58 714.382 3281.17 706.744C3300.1 699.106 3318.54 689.808 3336.47 678.849C3369.01 658.591 3394.59 639.827 3413.18 622.558C3431.78 605.289 3447.22 592.171 3459.51 583.204C3459.51 583.204 3471.13 575.068 3494.38 558.795C3494.91 558.44 3495.44 558.089 3495.97 557.744C3496.43 556.932 3496.9 556.12 3497.37 555.308C3522.94 511.803 3555.49 475.272 3595.01 445.715C3634.53 416.158 3671.22 401.38 3705.1 401.38C3753.58 401.38 3779.49 414.996 3782.81 442.228C3783.81 450.53 3784.3 460.161 3784.3 471.12C3784.3 482.079 3781.65 494.699 3776.33 508.979C3771.35 522.928 3764.71 537.042 3756.41 551.322C3748.44 565.27 3739.47 579.053 3729.51 592.669C3719.88 605.953 3710.58 618.074 3701.61 629.033C3684.34 649.955 3670.56 665.066 3660.26 674.365C3660.26 685.656 3668.73 697.28 3685.67 709.235C3701.61 720.527 3715.06 726.172 3726.02 726.172C3737.31 726.172 3750.43 723.516 3765.37 718.202C3780.65 712.889 3796.26 705.748 3812.2 696.781C3828.47 687.815 3844.91 677.52 3861.52 665.896C3878.45 654.273 3895.06 642.317 3911.33 630.029L3916.6 625.908C3921.14 613.641 3927.18 602.063 3934.74 591.174C3953.67 562.945 3974.76 548.831 3998.01 548.831C4002.33 548.831 4006.81 549.33 4011.46 550.326C4098.47 402.874 4148.45 318.853 4161.4 298.263L4188.8 255.422C4239.94 180.036 4288.43 134.87 4334.26 119.926C4349.87 114.944 4365.81 112.454 4382.08 112.454C4398.35 112.454 4411.64 118.099 4421.93 129.391C4432.56 140.682 4437.87 158.615 4437.87 183.19C4437.87 253.263 4398.69 333.798 4320.31 424.793L4190.79 568.259C4167.88 593.166 4145.96 618.738 4125.04 644.974C4136 657.593 4146.13 668.553 4155.42 677.852C4164.72 686.818 4172.36 691.302 4178.34 691.302C4184.65 691.302 4193.78 689.309 4205.74 685.324C4217.69 681.007 4231.31 675.361 4246.58 668.387C4262.19 661.413 4278.8 653.442 4296.4 644.476C4314 635.177 4331.11 625.712 4347.71 616.081C4382.07 596.09 4407.32 579.477 4423.46 566.243C4447.64 521.927 4478.68 485.902 4516.58 458.169C4559.75 426.288 4604.09 410.347 4649.59 410.347C4695.08 410.347 4717.83 428.114 4717.83 463.648C4717.83 485.899 4698.9 518.943 4661.04 562.779C4623.19 606.284 4604.26 642.151 4604.26 670.38C4604.26 685.656 4614.38 693.295 4634.64 693.295C4675.82 693.295 4745.9 641.985 4844.86 539.366L4893.18 490.548C4926.06 458.334 4947.81 442.228 4958.44 442.228C4969.07 442.228 4978.53 444.054 4986.83 447.707C4995.14 451.36 5002.44 456.01 5008.75 461.655C5021.7 473.279 5028.18 485.733 5028.18 499.017C5028.18 511.968 5026.69 526.415 5023.7 542.355C5021.04 557.964 5016.72 575.565 5010.75 595.159C4999.79 631.69 4980.03 680.675 4951.46 742.113L4931.04 785.95L5015.73 709.235L5189.08 560.787C5206.68 547.503 5221.3 540.861 5232.92 540.861C5258.16 540.861 5270.78 552.983 5270.78 577.226C5270.78 602.133 5254.51 634.181 5221.96 673.368C5212 685.656 5201.2 697.114 5189.58 707.741L5072.02 809.861L4842.87 1003.64C4822.61 1021.24 4807.33 1035.19 4797.04 1045.49C4784.75 1065.41 4775.12 1080.19 4768.15 1089.82C4761.5 1099.78 4754.86 1110.24 4748.22 1121.2C4741.58 1132.5 4735.1 1142.13 4728.79 1150.1C4715.18 1167.37 4701.56 1176 4687.94 1176C4673.66 1176 4659.88 1170.19 4646.6 1158.56C4622.02 1136.98 4609.74 1117.72 4609.74 1100.78C4609.74 1083.84 4614.38 1064.08 4623.68 1041.5C4632.98 1019.25 4645.1 993.678 4660.05 964.785L4765.66 770.01C4714.85 815.839 4674.99 846.225 4646.1 861.17C4617.21 875.782 4592.8 885.414 4572.87 890.063C4553.28 895.045 4532.36 897.535 4510.11 897.535C4488.19 897.535 4468.93 892.886 4452.32 883.587C4435.72 874.62 4421.93 862.499 4410.97 847.223C4392.82 821.414 4382.42 788.945 4379.77 749.815C4352.48 770.101 4323.7 788.292 4293.41 804.382C4261.86 820.987 4229.65 834.602 4196.77 845.229C4164.22 855.525 4133.67 860.672 4105.11 860.672C4076.55 860.672 4044.34 847.72 4008.47 821.816C4003.16 850.709 3998.34 879.436 3994.02 907.996C3989.38 936.889 3983.89 964.453 3977.58 990.688C3971.28 1016.92 3963.47 1041.33 3954.17 1063.92C3944.54 1086.5 3932.09 1105.93 3916.81 1122.2C3883.27 1157.73 3836.61 1175.5 3776.83 1175.5C3767.53 1175.5 3759.89 1172.01 3753.92 1165.04C3743.29 1152.42 3738.97 1137.97 3740.96 1121.7C3742.96 1105.76 3749.27 1082.85 3759.89 1052.96C3770.52 1023.07 3783.97 990.025 3800.24 953.826C3816.52 917.96 3834.78 879.768 3855.04 839.252L3867.43 815.616C3845.54 830.142 3823.64 843.169 3801.74 854.694C3776.5 867.646 3751.92 877.942 3728.01 885.58C3704.1 893.55 3680.52 897.535 3657.28 897.535C3634.36 897.535 3610.45 892.056 3585.54 881.097C3560.97 869.805 3539.05 854.86 3519.79 836.263C3487.73 805.203 3467.67 771.541 3459.6 735.275C3444.54 747.94 3428.57 760.515 3411.69 772.998C3372.5 802.223 3337.96 825.304 3308.07 842.241C3238.67 880.765 3175.73 900.026 3119.28 900.026C3066.14 900.026 3022.8 884.085 2989.26 852.204C2960.37 824.64 2945.92 795.58 2945.92 765.027C2945.92 739.896 2947.94 714.877 2951.99 689.97C2945.75 695.565 2938.91 700.825 2931.47 705.748L2869.7 746.597C2847.45 760.545 2824.54 774.326 2800.96 787.942L2729.23 827.296C2648.53 869.14 2586.09 890.063 2541.92 890.063C2498.09 890.063 2466.2 884.583 2446.28 873.624C2426.35 862.665 2416.39 847.222 2416.39 827.296C2416.39 800.396 2438.47 777.149 2482.64 757.556C2493.6 752.906 2508.88 745.6 2528.47 735.637C2648.36 674.199 2714.12 640.325 2725.74 634.015L2746.66 622.558C2768.25 608.609 2778.21 597.65 2776.55 589.68C2772.9 572.743 2763.76 565.935 2749.15 569.256C2734.54 572.245 2719.26 576.395 2703.32 581.709C2687.71 587.023 2671.11 593.499 2653.51 601.137C2616.64 616.413 2584.26 631.69 2556.37 646.967C2458.73 703.091 2399.95 737.131 2380.02 749.087C2365.74 781.3 2352.96 813.348 2341.67 845.229L2281.39 1015.6C2262.46 1068.4 2243.37 1104.1 2224.1 1122.7C2213.81 1132.99 2202.35 1138.14 2189.73 1138.14C2158.51 1138.14 2133.94 1127.18 2116.01 1105.26C2098.07 1083.68 2089.11 1056.11 2089.11 1022.57C2089.11 989.361 2093.42 956.483 2102.06 923.938C2109.65 895.601 2119.82 866.879 2132.55 837.771C2118.74 844.649 2105.09 850.622 2091.6 855.69C2044.44 873.292 2010.56 872.462 1989.97 853.2C1973.04 836.927 1959.59 810.691 1949.62 774.492L1937.67 731.153L1831.56 796.411L1770.29 831.281C1697.23 871.133 1642.43 891.059 1605.9 891.06C1559.08 891.06 1520.05 872.96 1488.84 836.761C1473.64 819.37 1462.31 800.562 1454.84 780.339C1379.57 836.882 1318.5 865.155 1271.64 865.155C1233.79 865.155 1205.22 849.214 1185.96 817.333C1174.34 798.071 1164.87 769.843 1157.57 732.648L1113.23 764.529C991.353 848.882 900.358 891.06 840.248 891.06C790.101 891.06 749.917 872.794 719.696 836.263C704.407 817.342 693.518 796.276 687.027 773.065C674.514 780.877 661.493 788.66 647.963 796.411C616.081 814.677 582.207 831.115 546.341 845.728C466.969 878.273 390.088 894.546 315.698 894.546C258.909 894.546 209.261 879.768 166.752 850.211C122.251 819.326 100 781.799 100 737.63C100 668.221 137.361 602.3 212.083 539.865C276.51 486.065 352.395 444.387 439.737 414.83C492.873 396.897 537.872 387.93 574.735 387.93C604.624 387.93 629.864 395.236 650.454 409.849C672.372 425.789 683.331 447.21 683.331 474.109C683.331 516.286 649.956 562.946 583.204 614.089C572.577 622.391 562.946 629.365 554.312 635.011L536.378 646.967C503.168 670.214 452.689 696.283 384.94 725.176C405.862 736.135 425.29 741.615 443.224 741.615C461.489 741.615 477.763 739.456 492.043 735.139C506.655 730.821 523.094 724.677 541.359 716.707C559.625 708.737 579.053 699.273 599.643 688.313C620.565 677.022 641.653 664.734 662.907 651.45C679.831 640.917 695.951 630.297 711.271 619.596C717.221 612.093 724.014 605.11 731.652 598.646C802.057 539.533 889.565 490.88 994.176 452.688C1036.68 437.08 1063.58 429.276 1074.88 429.276C1086.17 429.276 1096.46 431.269 1105.76 435.254C1115.39 438.907 1124.86 443.722 1134.16 449.7C1156.07 464.645 1167.03 479.091 1167.03 493.039C1167.03 504.33 1160.06 513.463 1146.11 520.438C1141.79 522.762 1134.49 525.917 1124.19 529.902C1113.9 533.888 1101.28 539.367 1086.33 546.341C1046.15 565.27 1006.96 588.185 968.771 615.085C941.538 638.332 927.922 656.93 927.922 670.878C927.922 684.494 937.553 691.302 956.814 691.302C972.755 691.302 1004.64 677.187 1052.46 648.959C1052.46 648.959 1066.57 640.325 1094.8 623.056C1125.02 604.126 1149.27 586.857 1167.53 571.248C1167.54 571.226 1175.18 546.318 1190.45 496.526C1218.67 407.524 1250.06 333.964 1284.6 275.847C1345.7 158.616 1407.14 100 1468.91 100ZM474.607 500.511C465.641 500.511 455.678 502.171 444.719 505.492C434.092 508.813 423.298 513.463 412.339 519.44C401.38 525.086 390.752 532.061 380.457 540.363C370.494 548.334 361.694 556.968 354.056 566.267C336.455 587.189 327.653 605.288 327.653 620.564C327.653 635.841 328.816 647.631 331.141 655.934L358.539 641.985C367.506 637.336 375.476 633.018 382.45 629.033C449.534 590.51 487.726 566.765 497.024 557.798C506.323 548.831 510.973 542.687 510.973 539.366C510.973 535.713 509.976 531.562 507.983 526.913C505.991 522.264 503.334 518.112 500.013 514.459C492.042 505.16 483.574 500.511 474.607 500.511Z"/>
<path d="M3919.8 131.882C3935.41 131.882 3947.03 133.708 3954.67 137.361C3962.64 140.682 3969.12 145.166 3974.1 150.812C3984.06 162.103 3989.04 173.726 3989.04 185.682C3989.04 197.305 3987.55 207.932 3984.56 217.562C3981.9 227.193 3977.92 237.157 3972.6 247.452C3967.29 257.747 3960.81 268.042 3953.18 278.337C3945.54 288.632 3936.9 297.931 3927.27 306.233C3917.64 314.204 3907.18 320.846 3895.89 326.159C3884.6 331.141 3871.98 333.632 3858.03 333.632C3844.08 333.632 3830.63 331.307 3817.68 326.657C3804.73 322.008 3793.44 315.532 3783.81 307.229C3762.88 289.296 3752.42 266.382 3752.42 238.485C3752.42 195.645 3788.29 163.763 3860.02 142.841C3884.27 135.535 3904.19 131.882 3919.8 131.882Z"/>
</mask>
<path fill-rule="evenodd" clip-rule="evenodd" d="M1468.91 100C1491.49 100 1509.43 104.152 1522.71 112.454C1546.62 127.399 1558.58 144.003 1558.58 162.269C1558.58 180.202 1555.26 199.298 1548.62 219.556C1541.97 239.814 1533.17 259.905 1522.21 279.831C1511.59 299.757 1499.3 319.518 1485.35 339.111L1400.17 451.692C1385.89 469.958 1373.27 487.725 1362.31 504.994C1343.05 546.506 1333.42 582.042 1333.42 611.599C1333.42 654.107 1348.86 675.361 1379.74 675.361C1397.34 675.361 1429.06 656.929 1474.89 620.066L1485.78 610.832C1489.39 606.707 1493.23 602.645 1497.31 598.646C1515.1 581.201 1536.5 564.266 1561.5 547.839C1572.77 539.746 1583.98 532.892 1595.14 527.281C1635.33 504.361 1682.92 482.485 1737.91 461.655C1841.53 422.8 1925.21 403.372 1988.98 403.372C2010.56 403.372 2021.36 414 2021.36 435.254C2021.36 449.866 2018.53 460.826 2012.89 468.132C2007.24 475.438 1995.62 482.91 1978.02 490.548L1915.25 517.448C1822.26 556.304 1754.18 596.654 1711.01 638.498C1698.72 650.121 1692.58 661.413 1692.58 672.372C1692.58 683.331 1701.38 688.812 1718.98 688.812C1736.25 688.812 1776.43 670.214 1839.53 633.019L1880.88 608.609C1944.97 570.086 1998.61 550.824 2041.78 550.824C2078.31 550.824 2102.56 566.931 2114.51 599.145C2117.5 607.779 2120.32 616.579 2122.98 625.546C2125.64 634.18 2128.29 641.985 2130.95 648.959C2136.93 665.232 2142.24 673.368 2146.89 673.368C2151.87 673.368 2158.85 671.044 2167.81 666.395C2176.78 661.413 2186.58 655.269 2197.2 647.963C2208.16 640.325 2219.45 632.022 2231.08 623.056L2288.52 577.003C2320.12 513.71 2363.73 451.847 2419.38 391.417C2464.21 342.931 2505.89 308.724 2544.41 288.798C2563.67 278.835 2580.11 273.854 2593.73 273.854C2607.35 273.854 2617.64 277.008 2624.62 283.318C2631.59 289.296 2635.08 296.935 2635.08 306.233C2635.08 315.2 2632.25 326.657 2626.61 340.605C2620.96 354.554 2613.32 370.163 2603.69 387.432C2594.06 404.701 2582.77 423.132 2569.82 442.726L2528.47 503.002C2525.15 507.983 2523.49 512.467 2523.49 516.452C2523.49 522.762 2527.31 525.917 2534.95 525.917C2543.58 525.917 2559.52 520.437 2582.77 509.478L2662.47 472.615C2732.22 441.066 2798.97 425.291 2862.73 425.291C2895.94 425.291 2927.16 441.066 2956.38 472.615C2975.46 493.197 2988.38 514.748 2995.14 537.268C3009.68 498.75 3025.15 464.745 3041.56 435.254C3047.54 423.963 3050.53 416.656 3050.53 413.335H2986.27C2962.03 413.335 2943.26 407.69 2929.98 396.398C2916.7 385.107 2910.05 372.321 2910.05 358.041C2910.05 343.761 2912.71 333.299 2918.02 326.657C2923.34 320.015 2929.98 315.2 2937.95 312.211C2949.24 307.562 2965.85 305.237 2987.76 305.237L3109.81 305.735C3112.47 304.739 3117.78 297.598 3125.75 284.314L3156.14 232.009C3169.09 208.762 3182.04 191.659 3194.99 180.7C3208.28 169.741 3223.72 164.261 3241.32 164.261C3259.26 164.261 3274.2 165.921 3286.16 169.242C3298.44 172.563 3308.74 176.715 3317.04 181.696C3333.31 192.323 3341.45 203.947 3341.45 216.566C3341.45 221.88 3339.62 229.021 3335.97 237.987L3308.07 305.735L3544.69 305.237C3565.28 305.237 3575.58 315.864 3575.58 337.118C3575.58 387.597 3530.58 412.837 3440.58 412.837L3258.26 413.335C3254.27 415.328 3247.47 424.958 3237.83 442.228L3215.42 483.574C3209.77 493.869 3205.79 501.674 3203.46 506.987L3192.5 531.396C3170.25 581.543 3159.13 617.742 3159.13 639.992C3159.13 662.243 3164.94 680.841 3176.56 695.785C3188.52 710.729 3204.29 718.202 3223.89 718.202C3243.48 718.202 3262.58 714.382 3281.17 706.744C3300.1 699.106 3318.54 689.808 3336.47 678.849C3369.01 658.591 3394.59 639.827 3413.18 622.558C3431.78 605.289 3447.22 592.171 3459.51 583.204C3459.51 583.204 3471.13 575.068 3494.38 558.795C3494.91 558.44 3495.44 558.089 3495.97 557.744C3496.43 556.932 3496.9 556.12 3497.37 555.308C3522.94 511.803 3555.49 475.272 3595.01 445.715C3634.53 416.158 3671.22 401.38 3705.1 401.38C3753.58 401.38 3779.49 414.996 3782.81 442.228C3783.81 450.53 3784.3 460.161 3784.3 471.12C3784.3 482.079 3781.65 494.699 3776.33 508.979C3771.35 522.928 3764.71 537.042 3756.41 551.322C3748.44 565.27 3739.47 579.053 3729.51 592.669C3719.88 605.953 3710.58 618.074 3701.61 629.033C3684.34 649.955 3670.56 665.066 3660.26 674.365C3660.26 685.656 3668.73 697.28 3685.67 709.235C3701.61 720.527 3715.06 726.172 3726.02 726.172C3737.31 726.172 3750.43 723.516 3765.37 718.202C3780.65 712.889 3796.26 705.748 3812.2 696.781C3828.47 687.815 3844.91 677.52 3861.52 665.896C3878.45 654.273 3895.06 642.317 3911.33 630.029L3916.6 625.908C3921.14 613.641 3927.18 602.063 3934.74 591.174C3953.67 562.945 3974.76 548.831 3998.01 548.831C4002.33 548.831 4006.81 549.33 4011.46 550.326C4098.47 402.874 4148.45 318.853 4161.4 298.263L4188.8 255.422C4239.94 180.036 4288.43 134.87 4334.26 119.926C4349.87 114.944 4365.81 112.454 4382.08 112.454C4398.35 112.454 4411.64 118.099 4421.93 129.391C4432.56 140.682 4437.87 158.615 4437.87 183.19C4437.87 253.263 4398.69 333.798 4320.31 424.793L4190.79 568.259C4167.88 593.166 4145.96 618.738 4125.04 644.974C4136 657.593 4146.13 668.553 4155.42 677.852C4164.72 686.818 4172.36 691.302 4178.34 691.302C4184.65 691.302 4193.78 689.309 4205.74 685.324C4217.69 681.007 4231.31 675.361 4246.58 668.387C4262.19 661.413 4278.8 653.442 4296.4 644.476C4314 635.177 4331.11 625.712 4347.71 616.081C4382.07 596.09 4407.32 579.477 4423.46 566.243C4447.64 521.927 4478.68 485.902 4516.58 458.169C4559.75 426.288 4604.09 410.347 4649.59 410.347C4695.08 410.347 4717.83 428.114 4717.83 463.648C4717.83 485.899 4698.9 518.943 4661.04 562.779C4623.19 606.284 4604.26 642.151 4604.26 670.38C4604.26 685.656 4614.38 693.295 4634.64 693.295C4675.82 693.295 4745.9 641.985 4844.86 539.366L4893.18 490.548C4926.06 458.334 4947.81 442.228 4958.44 442.228C4969.07 442.228 4978.53 444.054 4986.83 447.707C4995.14 451.36 5002.44 456.01 5008.75 461.655C5021.7 473.279 5028.18 485.733 5028.18 499.017C5028.18 511.968 5026.69 526.415 5023.7 542.355C5021.04 557.964 5016.72 575.565 5010.75 595.159C4999.79 631.69 4980.03 680.675 4951.46 742.113L4931.04 785.95L5015.73 709.235L5189.08 560.787C5206.68 547.503 5221.3 540.861 5232.92 540.861C5258.16 540.861 5270.78 552.983 5270.78 577.226C5270.78 602.133 5254.51 634.181 5221.96 673.368C5212 685.656 5201.2 697.114 5189.58 707.741L5072.02 809.861L4842.87 1003.64C4822.61 1021.24 4807.33 1035.19 4797.04 1045.49C4784.75 1065.41 4775.12 1080.19 4768.15 1089.82C4761.5 1099.78 4754.86 1110.24 4748.22 1121.2C4741.58 1132.5 4735.1 1142.13 4728.79 1150.1C4715.18 1167.37 4701.56 1176 4687.94 1176C4673.66 1176 4659.88 1170.19 4646.6 1158.56C4622.02 1136.98 4609.74 1117.72 4609.74 1100.78C4609.74 1083.84 4614.38 1064.08 4623.68 1041.5C4632.98 1019.25 4645.1 993.678 4660.05 964.785L4765.66 770.01C4714.85 815.839 4674.99 846.225 4646.1 861.17C4617.21 875.782 4592.8 885.414 4572.87 890.063C4553.28 895.045 4532.36 897.535 4510.11 897.535C4488.19 897.535 4468.93 892.886 4452.32 883.587C4435.72 874.62 4421.93 862.499 4410.97 847.223C4392.82 821.414 4382.42 788.945 4379.77 749.815C4352.48 770.101 4323.7 788.292 4293.41 804.382C4261.86 820.987 4229.65 834.602 4196.77 845.229C4164.22 855.525 4133.67 860.672 4105.11 860.672C4076.55 860.672 4044.34 847.72 4008.47 821.816C4003.16 850.709 3998.34 879.436 3994.02 907.996C3989.38 936.889 3983.89 964.453 3977.58 990.688C3971.28 1016.92 3963.47 1041.33 3954.17 1063.92C3944.54 1086.5 3932.09 1105.93 3916.81 1122.2C3883.27 1157.73 3836.61 1175.5 3776.83 1175.5C3767.53 1175.5 3759.89 1172.01 3753.92 1165.04C3743.29 1152.42 3738.97 1137.97 3740.96 1121.7C3742.96 1105.76 3749.27 1082.85 3759.89 1052.96C3770.52 1023.07 3783.97 990.025 3800.24 953.826C3816.52 917.96 3834.78 879.768 3855.04 839.252L3867.43 815.616C3845.54 830.142 3823.64 843.169 3801.74 854.694C3776.5 867.646 3751.92 877.942 3728.01 885.58C3704.1 893.55 3680.52 897.535 3657.28 897.535C3634.36 897.535 3610.45 892.056 3585.54 881.097C3560.97 869.805 3539.05 854.86 3519.79 836.263C3487.73 805.203 3467.67 771.541 3459.6 735.275C3444.54 747.94 3428.57 760.515 3411.69 772.998C3372.5 802.223 3337.96 825.304 3308.07 842.241C3238.67 880.765 3175.73 900.026 3119.28 900.026C3066.14 900.026 3022.8 884.085 2989.26 852.204C2960.37 824.64 2945.92 795.58 2945.92 765.027C2945.92 739.896 2947.94 714.877 2951.99 689.97C2945.75 695.565 2938.91 700.825 2931.47 705.748L2869.7 746.597C2847.45 760.545 2824.54 774.326 2800.96 787.942L2729.23 827.296C2648.53 869.14 2586.09 890.063 2541.92 890.063C2498.09 890.063 2466.2 884.583 2446.28 873.624C2426.35 862.665 2416.39 847.222 2416.39 827.296C2416.39 800.396 2438.47 777.149 2482.64 757.556C2493.6 752.906 2508.88 745.6 2528.47 735.637C2648.36 674.199 2714.12 640.325 2725.74 634.015L2746.66 622.558C2768.25 608.609 2778.21 597.65 2776.55 589.68C2772.9 572.743 2763.76 565.935 2749.15 569.256C2734.54 572.245 2719.26 576.395 2703.32 581.709C2687.71 587.023 2671.11 593.499 2653.51 601.137C2616.64 616.413 2584.26 631.69 2556.37 646.967C2458.73 703.091 2399.95 737.131 2380.02 749.087C2365.74 781.3 2352.96 813.348 2341.67 845.229L2281.39 1015.6C2262.46 1068.4 2243.37 1104.1 2224.1 1122.7C2213.81 1132.99 2202.35 1138.14 2189.73 1138.14C2158.51 1138.14 2133.94 1127.18 2116.01 1105.26C2098.07 1083.68 2089.11 1056.11 2089.11 1022.57C2089.11 989.361 2093.42 956.483 2102.06 923.938C2109.65 895.601 2119.82 866.879 2132.55 837.771C2118.74 844.649 2105.09 850.622 2091.6 855.69C2044.44 873.292 2010.56 872.462 1989.97 853.2C1973.04 836.927 1959.59 810.691 1949.62 774.492L1937.67 731.153L1831.56 796.411L1770.29 831.281C1697.23 871.133 1642.43 891.059 1605.9 891.06C1559.08 891.06 1520.05 872.96 1488.84 836.761C1473.64 819.37 1462.31 800.562 1454.84 780.339C1379.57 836.882 1318.5 865.155 1271.64 865.155C1233.79 865.155 1205.22 849.214 1185.96 817.333C1174.34 798.071 1164.87 769.843 1157.57 732.648L1113.23 764.529C991.353 848.882 900.358 891.06 840.248 891.06C790.101 891.06 749.917 872.794 719.696 836.263C704.407 817.342 693.518 796.276 687.027 773.065C674.514 780.877 661.493 788.66 647.963 796.411C616.081 814.677 582.207 831.115 546.341 845.728C466.969 878.273 390.088 894.546 315.698 894.546C258.909 894.546 209.261 879.768 166.752 850.211C122.251 819.326 100 781.799 100 737.63C100 668.221 137.361 602.3 212.083 539.865C276.51 486.065 352.395 444.387 439.737 414.83C492.873 396.897 537.872 387.93 574.735 387.93C604.624 387.93 629.864 395.236 650.454 409.849C672.372 425.789 683.331 447.21 683.331 474.109C683.331 516.286 649.956 562.946 583.204 614.089C572.577 622.391 562.946 629.365 554.312 635.011L536.378 646.967C503.168 670.214 452.689 696.283 384.94 725.176C405.862 736.135 425.29 741.615 443.224 741.615C461.489 741.615 477.763 739.456 492.043 735.139C506.655 730.821 523.094 724.677 541.359 716.707C559.625 708.737 579.053 699.273 599.643 688.313C620.565 677.022 641.653 664.734 662.907 651.45C679.831 640.917 695.951 630.297 711.271 619.596C717.221 612.093 724.014 605.11 731.652 598.646C802.057 539.533 889.565 490.88 994.176 452.688C1036.68 437.08 1063.58 429.276 1074.88 429.276C1086.17 429.276 1096.46 431.269 1105.76 435.254C1115.39 438.907 1124.86 443.722 1134.16 449.7C1156.07 464.645 1167.03 479.091 1167.03 493.039C1167.03 504.33 1160.06 513.463 1146.11 520.438C1141.79 522.762 1134.49 525.917 1124.19 529.902C1113.9 533.888 1101.28 539.367 1086.33 546.341C1046.15 565.27 1006.96 588.185 968.771 615.085C941.538 638.332 927.922 656.93 927.922 670.878C927.922 684.494 937.553 691.302 956.814 691.302C972.755 691.302 1004.64 677.187 1052.46 648.959C1052.46 648.959 1066.57 640.325 1094.8 623.056C1125.02 604.126 1149.27 586.857 1167.53 571.248C1167.54 571.226 1175.18 546.318 1190.45 496.526C1218.67 407.524 1250.06 333.964 1284.6 275.847C1345.7 158.616 1407.14 100 1468.91 100ZM474.607 500.511C465.641 500.511 455.678 502.171 444.719 505.492C434.092 508.813 423.298 513.463 412.339 519.44C401.38 525.086 390.752 532.061 380.457 540.363C370.494 548.334 361.694 556.968 354.056 566.267C336.455 587.189 327.653 605.288 327.653 620.564C327.653 635.841 328.816 647.631 331.141 655.934L358.539 641.985C367.506 637.336 375.476 633.018 382.45 629.033C449.534 590.51 487.726 566.765 497.024 557.798C506.323 548.831 510.973 542.687 510.973 539.366C510.973 535.713 509.976 531.562 507.983 526.913C505.991 522.264 503.334 518.112 500.013 514.459C492.042 505.16 483.574 500.511 474.607 500.511Z" fill="url(#paint0_linear_25_28)"/>
<path d="M3919.8 131.882C3935.41 131.882 3947.03 133.708 3954.67 137.361C3962.64 140.682 3969.12 145.166 3974.1 150.812C3984.06 162.103 3989.04 173.726 3989.04 185.682C3989.04 197.305 3987.55 207.932 3984.56 217.562C3981.9 227.193 3977.92 237.157 3972.6 247.452C3967.29 257.747 3960.81 268.042 3953.18 278.337C3945.54 288.632 3936.9 297.931 3927.27 306.233C3917.64 314.204 3907.18 320.846 3895.89 326.159C3884.6 331.141 3871.98 333.632 3858.03 333.632C3844.08 333.632 3830.63 331.307 3817.68 326.657C3804.73 322.008 3793.44 315.532 3783.81 307.229C3762.88 289.296 3752.42 266.382 3752.42 238.485C3752.42 195.645 3788.29 163.763 3860.02 142.841C3884.27 135.535 3904.19 131.882 3919.8 131.882Z" fill="url(#paint1_linear_25_28)"/>
<path fill-rule="evenodd" clip-rule="evenodd" d="M1468.91 100C1491.49 100 1509.43 104.152 1522.71 112.454C1546.62 127.399 1558.58 144.003 1558.58 162.269C1558.58 180.202 1555.26 199.298 1548.62 219.556C1541.97 239.814 1533.17 259.905 1522.21 279.831C1511.59 299.757 1499.3 319.518 1485.35 339.111L1400.17 451.692C1385.89 469.958 1373.27 487.725 1362.31 504.994C1343.05 546.506 1333.42 582.042 1333.42 611.599C1333.42 654.107 1348.86 675.361 1379.74 675.361C1397.34 675.361 1429.06 656.929 1474.89 620.066L1485.78 610.832C1489.39 606.707 1493.23 602.645 1497.31 598.646C1515.1 581.201 1536.5 564.266 1561.5 547.839C1572.77 539.746 1583.98 532.892 1595.14 527.281C1635.33 504.361 1682.92 482.485 1737.91 461.655C1841.53 422.8 1925.21 403.372 1988.98 403.372C2010.56 403.372 2021.36 414 2021.36 435.254C2021.36 449.866 2018.53 460.826 2012.89 468.132C2007.24 475.438 1995.62 482.91 1978.02 490.548L1915.25 517.448C1822.26 556.304 1754.18 596.654 1711.01 638.498C1698.72 650.121 1692.58 661.413 1692.58 672.372C1692.58 683.331 1701.38 688.812 1718.98 688.812C1736.25 688.812 1776.43 670.214 1839.53 633.019L1880.88 608.609C1944.97 570.086 1998.61 550.824 2041.78 550.824C2078.31 550.824 2102.56 566.931 2114.51 599.145C2117.5 607.779 2120.32 616.579 2122.98 625.546C2125.64 634.18 2128.29 641.985 2130.95 648.959C2136.93 665.232 2142.24 673.368 2146.89 673.368C2151.87 673.368 2158.85 671.044 2167.81 666.395C2176.78 661.413 2186.58 655.269 2197.2 647.963C2208.16 640.325 2219.45 632.022 2231.08 623.056L2288.52 577.003C2320.12 513.71 2363.73 451.847 2419.38 391.417C2464.21 342.931 2505.89 308.724 2544.41 288.798C2563.67 278.835 2580.11 273.854 2593.73 273.854C2607.35 273.854 2617.64 277.008 2624.62 283.318C2631.59 289.296 2635.08 296.935 2635.08 306.233C2635.08 315.2 2632.25 326.657 2626.61 340.605C2620.96 354.554 2613.32 370.163 2603.69 387.432C2594.06 404.701 2582.77 423.132 2569.82 442.726L2528.47 503.002C2525.15 507.983 2523.49 512.467 2523.49 516.452C2523.49 522.762 2527.31 525.917 2534.95 525.917C2543.58 525.917 2559.52 520.437 2582.77 509.478L2662.47 472.615C2732.22 441.066 2798.97 425.291 2862.73 425.291C2895.94 425.291 2927.16 441.066 2956.38 472.615C2975.46 493.197 2988.38 514.748 2995.14 537.268C3009.68 498.75 3025.15 464.745 3041.56 435.254C3047.54 423.963 3050.53 416.656 3050.53 413.335H2986.27C2962.03 413.335 2943.26 407.69 2929.98 396.398C2916.7 385.107 2910.05 372.321 2910.05 358.041C2910.05 343.761 2912.71 333.299 2918.02 326.657C2923.34 320.015 2929.98 315.2 2937.95 312.211C2949.24 307.562 2965.85 305.237 2987.76 305.237L3109.81 305.735C3112.47 304.739 3117.78 297.598 3125.75 284.314L3156.14 232.009C3169.09 208.762 3182.04 191.659 3194.99 180.7C3208.28 169.741 3223.72 164.261 3241.32 164.261C3259.26 164.261 3274.2 165.921 3286.16 169.242C3298.44 172.563 3308.74 176.715 3317.04 181.696C3333.31 192.323 3341.45 203.947 3341.45 216.566C3341.45 221.88 3339.62 229.021 3335.97 237.987L3308.07 305.735L3544.69 305.237C3565.28 305.237 3575.58 315.864 3575.58 337.118C3575.58 387.597 3530.58 412.837 3440.58 412.837L3258.26 413.335C3254.27 415.328 3247.47 424.958 3237.83 442.228L3215.42 483.574C3209.77 493.869 3205.79 501.674 3203.46 506.987L3192.5 531.396C3170.25 581.543 3159.13 617.742 3159.13 639.992C3159.13 662.243 3164.94 680.841 3176.56 695.785C3188.52 710.729 3204.29 718.202 3223.89 718.202C3243.48 718.202 3262.58 714.382 3281.17 706.744C3300.1 699.106 3318.54 689.808 3336.47 678.849C3369.01 658.591 3394.59 639.827 3413.18 622.558C3431.78 605.289 3447.22 592.171 3459.51 583.204C3459.51 583.204 3471.13 575.068 3494.38 558.795C3494.91 558.44 3495.44 558.089 3495.97 557.744C3496.43 556.932 3496.9 556.12 3497.37 555.308C3522.94 511.803 3555.49 475.272 3595.01 445.715C3634.53 416.158 3671.22 401.38 3705.1 401.38C3753.58 401.38 3779.49 414.996 3782.81 442.228C3783.81 450.53 3784.3 460.161 3784.3 471.12C3784.3 482.079 3781.65 494.699 3776.33 508.979C3771.35 522.928 3764.71 537.042 3756.41 551.322C3748.44 565.27 3739.47 579.053 3729.51 592.669C3719.88 605.953 3710.58 618.074 3701.61 629.033C3684.34 649.955 3670.56 665.066 3660.26 674.365C3660.26 685.656 3668.73 697.28 3685.67 709.235C3701.61 720.527 3715.06 726.172 3726.02 726.172C3737.31 726.172 3750.43 723.516 3765.37 718.202C3780.65 712.889 3796.26 705.748 3812.2 696.781C3828.47 687.815 3844.91 677.52 3861.52 665.896C3878.45 654.273 3895.06 642.317 3911.33 630.029L3916.6 625.908C3921.14 613.641 3927.18 602.063 3934.74 591.174C3953.67 562.945 3974.76 548.831 3998.01 548.831C4002.33 548.831 4006.81 549.33 4011.46 550.326C4098.47 402.874 4148.45 318.853 4161.4 298.263L4188.8 255.422C4239.94 180.036 4288.43 134.87 4334.26 119.926C4349.87 114.944 4365.81 112.454 4382.08 112.454C4398.35 112.454 4411.64 118.099 4421.93 129.391C4432.56 140.682 4437.87 158.615 4437.87 183.19C4437.87 253.263 4398.69 333.798 4320.31 424.793L4190.79 568.259C4167.88 593.166 4145.96 618.738 4125.04 644.974C4136 657.593 4146.13 668.553 4155.42 677.852C4164.72 686.818 4172.36 691.302 4178.34 691.302C4184.65 691.302 4193.78 689.309 4205.74 685.324C4217.69 681.007 4231.31 675.361 4246.58 668.387C4262.19 661.413 4278.8 653.442 4296.4 644.476C4314 635.177 4331.11 625.712 4347.71 616.081C4382.07 596.09 4407.32 579.477 4423.46 566.243C4447.64 521.927 4478.68 485.902 4516.58 458.169C4559.75 426.288 4604.09 410.347 4649.59 410.347C4695.08 410.347 4717.83 428.114 4717.83 463.648C4717.83 485.899 4698.9 518.943 4661.04 562.779C4623.19 606.284 4604.26 642.151 4604.26 670.38C4604.26 685.656 4614.38 693.295 4634.64 693.295C4675.82 693.295 4745.9 641.985 4844.86 539.366L4893.18 490.548C4926.06 458.334 4947.81 442.228 4958.44 442.228C4969.07 442.228 4978.53 444.054 4986.83 447.707C4995.14 451.36 5002.44 456.01 5008.75 461.655C5021.7 473.279 5028.18 485.733 5028.18 499.017C5028.18 511.968 5026.69 526.415 5023.7 542.355C5021.04 557.964 5016.72 575.565 5010.75 595.159C4999.79 631.69 4980.03 680.675 4951.46 742.113L4931.04 785.95L5015.73 709.235L5189.08 560.787C5206.68 547.503 5221.3 540.861 5232.92 540.861C5258.16 540.861 5270.78 552.983 5270.78 577.226C5270.78 602.133 5254.51 634.181 5221.96 673.368C5212 685.656 5201.2 697.114 5189.58 707.741L5072.02 809.861L4842.87 1003.64C4822.61 1021.24 4807.33 1035.19 4797.04 1045.49C4784.75 1065.41 4775.12 1080.19 4768.15 1089.82C4761.5 1099.78 4754.86 1110.24 4748.22 1121.2C4741.58 1132.5 4735.1 1142.13 4728.79 1150.1C4715.18 1167.37 4701.56 1176 4687.94 1176C4673.66 1176 4659.88 1170.19 4646.6 1158.56C4622.02 1136.98 4609.74 1117.72 4609.74 1100.78C4609.74 1083.84 4614.38 1064.08 4623.68 1041.5C4632.98 1019.25 4645.1 993.678 4660.05 964.785L4765.66 770.01C4714.85 815.839 4674.99 846.225 4646.1 861.17C4617.21 875.782 4592.8 885.414 4572.87 890.063C4553.28 895.045 4532.36 897.535 4510.11 897.535C4488.19 897.535 4468.93 892.886 4452.32 883.587C4435.72 874.62 4421.93 862.499 4410.97 847.223C4392.82 821.414 4382.42 788.945 4379.77 749.815C4352.48 770.101 4323.7 788.292 4293.41 804.382C4261.86 820.987 4229.65 834.602 4196.77 845.229C4164.22 855.525 4133.67 860.672 4105.11 860.672C4076.55 860.672 4044.34 847.72 4008.47 821.816C4003.16 850.709 3998.34 879.436 3994.02 907.996C3989.38 936.889 3983.89 964.453 3977.58 990.688C3971.28 1016.92 3963.47 1041.33 3954.17 1063.92C3944.54 1086.5 3932.09 1105.93 3916.81 1122.2C3883.27 1157.73 3836.61 1175.5 3776.83 1175.5C3767.53 1175.5 3759.89 1172.01 3753.92 1165.04C3743.29 1152.42 3738.97 1137.97 3740.96 1121.7C3742.96 1105.76 3749.27 1082.85 3759.89 1052.96C3770.52 1023.07 3783.97 990.025 3800.24 953.826C3816.52 917.96 3834.78 879.768 3855.04 839.252L3867.43 815.616C3845.54 830.142 3823.64 843.169 3801.74 854.694C3776.5 867.646 3751.92 877.942 3728.01 885.58C3704.1 893.55 3680.52 897.535 3657.28 897.535C3634.36 897.535 3610.45 892.056 3585.54 881.097C3560.97 869.805 3539.05 854.86 3519.79 836.263C3487.73 805.203 3467.67 771.541 3459.6 735.275C3444.54 747.94 3428.57 760.515 3411.69 772.998C3372.5 802.223 3337.96 825.304 3308.07 842.241C3238.67 880.765 3175.73 900.026 3119.28 900.026C3066.14 900.026 3022.8 884.085 2989.26 852.204C2960.37 824.64 2945.92 795.58 2945.92 765.027C2945.92 739.896 2947.94 714.877 2951.99 689.97C2945.75 695.565 2938.91 700.825 2931.47 705.748L2869.7 746.597C2847.45 760.545 2824.54 774.326 2800.96 787.942L2729.23 827.296C2648.53 869.14 2586.09 890.063 2541.92 890.063C2498.09 890.063 2466.2 884.583 2446.28 873.624C2426.35 862.665 2416.39 847.222 2416.39 827.296C2416.39 800.396 2438.47 777.149 2482.64 757.556C2493.6 752.906 2508.88 745.6 2528.47 735.637C2648.36 674.199 2714.12 640.325 2725.74 634.015L2746.66 622.558C2768.25 608.609 2778.21 597.65 2776.55 589.68C2772.9 572.743 2763.76 565.935 2749.15 569.256C2734.54 572.245 2719.26 576.395 2703.32 581.709C2687.71 587.023 2671.11 593.499 2653.51 601.137C2616.64 616.413 2584.26 631.69 2556.37 646.967C2458.73 703.091 2399.95 737.131 2380.02 749.087C2365.74 781.3 2352.96 813.348 2341.67 845.229L2281.39 1015.6C2262.46 1068.4 2243.37 1104.1 2224.1 1122.7C2213.81 1132.99 2202.35 1138.14 2189.73 1138.14C2158.51 1138.14 2133.94 1127.18 2116.01 1105.26C2098.07 1083.68 2089.11 1056.11 2089.11 1022.57C2089.11 989.361 2093.42 956.483 2102.06 923.938C2109.65 895.601 2119.82 866.879 2132.55 837.771C2118.74 844.649 2105.09 850.622 2091.6 855.69C2044.44 873.292 2010.56 872.462 1989.97 853.2C1973.04 836.927 1959.59 810.691 1949.62 774.492L1937.67 731.153L1831.56 796.411L1770.29 831.281C1697.23 871.133 1642.43 891.059 1605.9 891.06C1559.08 891.06 1520.05 872.96 1488.84 836.761C1473.64 819.37 1462.31 800.562 1454.84 780.339C1379.57 836.882 1318.5 865.155 1271.64 865.155C1233.79 865.155 1205.22 849.214 1185.96 817.333C1174.34 798.071 1164.87 769.843 1157.57 732.648L1113.23 764.529C991.353 848.882 900.358 891.06 840.248 891.06C790.101 891.06 749.917 872.794 719.696 836.263C704.407 817.342 693.518 796.276 687.027 773.065C674.514 780.877 661.493 788.66 647.963 796.411C616.081 814.677 582.207 831.115 546.341 845.728C466.969 878.273 390.088 894.546 315.698 894.546C258.909 894.546 209.261 879.768 166.752 850.211C122.251 819.326 100 781.799 100 737.63C100 668.221 137.361 602.3 212.083 539.865C276.51 486.065 352.395 444.387 439.737 414.83C492.873 396.897 537.872 387.93 574.735 387.93C604.624 387.93 629.864 395.236 650.454 409.849C672.372 425.789 683.331 447.21 683.331 474.109C683.331 516.286 649.956 562.946 583.204 614.089C572.577 622.391 562.946 629.365 554.312 635.011L536.378 646.967C503.168 670.214 452.689 696.283 384.94 725.176C405.862 736.135 425.29 741.615 443.224 741.615C461.489 741.615 477.763 739.456 492.043 735.139C506.655 730.821 523.094 724.677 541.359 716.707C559.625 708.737 579.053 699.273 599.643 688.313C620.565 677.022 641.653 664.734 662.907 651.45C679.831 640.917 695.951 630.297 711.271 619.596C717.221 612.093 724.014 605.11 731.652 598.646C802.057 539.533 889.565 490.88 994.176 452.688C1036.68 437.08 1063.58 429.276 1074.88 429.276C1086.17 429.276 1096.46 431.269 1105.76 435.254C1115.39 438.907 1124.86 443.722 1134.16 449.7C1156.07 464.645 1167.03 479.091 1167.03 493.039C1167.03 504.33 1160.06 513.463 1146.11 520.438C1141.79 522.762 1134.49 525.917 1124.19 529.902C1113.9 533.888 1101.28 539.367 1086.33 546.341C1046.15 565.27 1006.96 588.185 968.771 615.085C941.538 638.332 927.922 656.93 927.922 670.878C927.922 684.494 937.553 691.302 956.814 691.302C972.755 691.302 1004.64 677.187 1052.46 648.959C1052.46 648.959 1066.57 640.325 1094.8 623.056C1125.02 604.126 1149.27 586.857 1167.53 571.248C1167.54 571.226 1175.18 546.318 1190.45 496.526C1218.67 407.524 1250.06 333.964 1284.6 275.847C1345.7 158.616 1407.14 100 1468.91 100ZM474.607 500.511C465.641 500.511 455.678 502.171 444.719 505.492C434.092 508.813 423.298 513.463 412.339 519.44C401.38 525.086 390.752 532.061 380.457 540.363C370.494 548.334 361.694 556.968 354.056 566.267C336.455 587.189 327.653 605.288 327.653 620.564C327.653 635.841 328.816 647.631 331.141 655.934L358.539 641.985C367.506 637.336 375.476 633.018 382.45 629.033C449.534 590.51 487.726 566.765 497.024 557.798C506.323 548.831 510.973 542.687 510.973 539.366C510.973 535.713 509.976 531.562 507.983 526.913C505.991 522.264 503.334 518.112 500.013 514.459C492.042 505.16 483.574 500.511 474.607 500.511Z" stroke="black" stroke-width="200" mask="url(#path-1-outside-1_25_28)"/>
<path d="M3919.8 131.882C3935.41 131.882 3947.03 133.708 3954.67 137.361C3962.64 140.682 3969.12 145.166 3974.1 150.812C3984.06 162.103 3989.04 173.726 3989.04 185.682C3989.04 197.305 3987.55 207.932 3984.56 217.562C3981.9 227.193 3977.92 237.157 3972.6 247.452C3967.29 257.747 3960.81 268.042 3953.18 278.337C3945.54 288.632 3936.9 297.931 3927.27 306.233C3917.64 314.204 3907.18 320.846 3895.89 326.159C3884.6 331.141 3871.98 333.632 3858.03 333.632C3844.08 333.632 3830.63 331.307 3817.68 326.657C3804.73 322.008 3793.44 315.532 3783.81 307.229C3762.88 289.296 3752.42 266.382 3752.42 238.485C3752.42 195.645 3788.29 163.763 3860.02 142.841C3884.27 135.535 3904.19 131.882 3919.8 131.882Z" stroke="black" stroke-width="200" mask="url(#path-1-outside-1_25_28)"/>
<defs>
<linearGradient id="paint0_linear_25_28" x1="100" y1="638" x2="5270.78" y2="638" gradientUnits="userSpaceOnUse">
<stop stop-color="#DDF526"/>
<stop offset="1" stop-color="#BF15E1"/>
</linearGradient>
<linearGradient id="paint1_linear_25_28" x1="100" y1="638" x2="5270.78" y2="638" gradientUnits="userSpaceOnUse">
<stop stop-color="#DDF526"/>
<stop offset="1" stop-color="#BF15E1"/>
</linearGradient>
</defs>
</svg>
